<svg width="390" height="563" viewBox="0 0 390 563" xmlns="http://www.w3.org/2000/svg"><path d="M233.555 55.309c-.008.205-.016.41-.022.616h1.48l.02-.466-1.478-.15zm-39.893-34.56c-1.78.657-1.78.657-1.274 1.654l1.274-1.653zm-28.575-5.138l2.188-1.582c-1.37-.04-2.308-.427-2.188 1.582zm-27.745 20.404l-.7-.246-.278 2.356.414.075.564-2.185zm-33.67 7.65l.893-2.756-2.3.842 1.406 1.914zm52.902-7.542c2.58-1.105 2.709-1.43 1.404-3.382-1.402.72-1.412 1.994-1.404 3.382zm20.421-10.803c.727 1.372.48 3.023 2.313 4.302l-.404-5.024-1.909.722zM80.072 87.94l.61-.001.993-3.652-2.858.345 1.255 3.309zm.703 11.755c-1.846 2.749-2.067 4.926-.971 7l.97-7zm.182-32.418l1.273 3.43c2.07-1.419 2.07-1.419 1.399-3.43h-2.672zm129.38-39.283c.804-1.623 1.47-2.793.661-4.07-.687-1.086-1.759-1.059-3.043-.59.48.784.873 1.346 1.185 1.953.353.69.634 1.421 1.196 2.707zm-54.858-5.755l.152 3.415c.747-.812 1.165-1.667 1.782-1.862 1.781-.562 2.06-2.116 2.706-3.327l-4.64 1.774zm-30.914 17.125c3.078-.926 3.235-1.184 2.641-4.349-2.388.204-2.702.722-2.64 4.35zm64.507-5.597c.132-.494.58-1.215.414-1.725-.526-1.616-1.28-3.153-1.973-4.784-1.604.688-1.005 2.19-1.365 2.869l2.924 3.64zm-87.96 1.965l5.48-.331v-3.333c-2.52.145-3.993 1.556-5.48 3.664zm-11.11 59.896c-.674-3.154-.756-3.23-4.107-3.955v3.955h4.108zm7.512-4.422c1.917-4.107 2.026-4.956.976-7.811-.483 1.134-.859 2.1-1.3 3.032-.445.94-.954 1.849-1.445 2.789l1.769 1.99zM128.493 23.6c-.144-1.602-.271-2.823-.36-4.048-.089-1.241-.14-2.486-.226-4.066-1.939 1.809-2.811 3.614-2.956 5.786l3.542 2.328zm119.823 89.875c-1.351-.289-1.825.148-1.794 1.34.113 4.347.548 8.645 1.657 12.853.08.31.308.578.468.866l.25-.25c-.072-4.828.404-9.776-.581-14.81zM89.88 50.6c2.047 1.952 2.369 2.263 2.044 3.63-.264 1.114-.007 1.783.652 2.607.703.879 1.123 1.99 1.745 2.946.49.752 1.101 1.423 2.005 2.57l1.24-3.662c-2.577-1.47-3.81-3.642-4.385-6.256-.171-.778-.163-1.602-.369-2.368-.323-1.208-1.182-1.48-2.142-.69-.316.26-.475.72-.79 1.223zm59.861-28.277c-2.828 2.7-5.86 9.355-5.944 12.98 1.578-2.211 4.63-2.134 5.413-5.169.646-2.5 1.12-4.887.531-7.811zm20.942 3.325c-.56.331-.807.41-.962.578-2.627 2.849-3.715 6.54-5.139 10.039-.207.508-.067 1.236.085 1.815.386 1.462 1.304 2.148 2.37 1.904 1.491-.342 2.29-1.572 1.875-3.09-.784-2.861-.4-5.619.564-8.338.311-.876.71-1.72 1.207-2.908zm88.571 192.784c-.107-.606-.125-1.051-.265-1.45-1.527-4.338-3.018-8.692-4.636-12.996-1.074-2.862-3.203-4.453-6.145-5.141-7.187-1.68-14.44-1.712-21.72-1.092-1.446.124-2.896.56-4.272 1.06-1.103.402-2.227.99-2.463 2.449 1.204 1.492 2.86 1.706 4.483 1.899 4.902.575 9.807 1.123 14.716 1.63 2.102.216 3.162 1.404 3.787 3.41.913 2.937 2.055 5.797 3.053 8.559l13.462 1.672zM97.367 170.726c-.589-6.644-1.087-13.2-1.776-19.736-.493-4.683-.986-9.395-1.96-13.986-.73-3.439-1.896-6.881-3.465-10.006-2.043-4.068-5.568-4.084-8.123-.398a9.1 9.1 0 00-.984 1.868c-1.451 3.722-2.13 7.627-1.138 11.51 1.823 7.135 3.936 14.194 5.982 21.268.318 1.097.81 2.183 1.422 3.14 1.233 1.926 2.438 3.918 3.958 5.591 1.889 2.078 4.042 2.143 6.084.75zm193.501 300.115c-6.775-13.327-11.65-27.068-15.912-40.862l-11.82 8.64c8.359 11.194 15.03 23.504 18.293 37.808 3.24-1.919 6.148-3.64 9.44-5.586zM113.814 235.202l-.618-.098c-.6 1.63-1.394 3.219-1.76 4.903a34.353 34.353 0 00-.221 13.491c1.154 6.38 1.904 12.87 3.528 19.121 2.493 9.596 7.374 18.19 11.876 26.91.29.563.865.97 1.496 1.653.73-1.128 1.308-1.989 1.855-2.872 1.718-2.778 3.217-5.73 5.181-8.308 3.496-4.588 7.386-8.792 13.289-10.132.231-.054.43-.255.841-.507-1.841-1.282-3.362-2.456-4.989-3.449-6.397-3.907-11.311-9.33-15.434-15.6-1.307-1.989-2.713-3.914-4.132-5.82-3.16-4.252-6.14-8.61-8.245-13.54-.831-1.942-1.775-3.835-2.667-5.752zm127.164-121.547c-15.82 1.51-31.184 3.259-46.242 7.721 3.008 8.347 6.446 16.169 11.769 23.028 2.252 2.903 5.005 4.268 8.532 4.22 2.17-.03 4.34-.003 6.508-.089 6.962-.273 13.825-1.204 20.458-3.504 1.279-.444 2.514-1.025 3.744-1.532-1.716-10.028-4.607-19.506-4.769-29.844zm16.428 382.131c.213.063.326.137.373.105 5.719-3.858 11.428-7.735 17.155-11.583 1.074-.72 1.507-1.704 1.332-2.952-.354-2.546-.522-5.151-1.183-7.613-3.073-11.4-8.669-21.492-15.659-30.804-1.583-2.109-3.435-4.005-5.165-5.998-1.495-1.725-3.31-2.538-5.578-2.067-2.374.495-4.78.857-7.111 1.51-3.68 1.03-7.306 2.247-10.949 3.405-.437.138-.835.406-1.368.675.38.432.593.709.841.951 4.812 4.697 8.778 10.055 12.067 15.977 1.544 2.778 3.268 5.462 5.052 8.09 4.179 6.152 6.859 12.96 8.46 20.222.737 3.347 1.17 6.762 1.733 10.082zM120.06 130.333c3.046 8.354 6.399 16.225 11.034 23.485 2.471 3.872 5.862 5.755 10.37 6.11 5.42.427 10.775.037 16.061-.96 4.674-.88 9.267-2.233 13.868-3.484 2.66-.723 3.76-2.667 4.132-5.467 1.217-9.148.852-18.292.295-27.447-.008-.141-.197-.271-.44-.585-.547 0-1.235-.043-1.916.006-4.931.354-9.885.526-14.787 1.136-8.435 1.049-16.848 2.302-25.25 3.613-4.444.694-8.85 1.667-13.367 3.593zm199.327 203.43c-.724-1.39-1.39-2.536-1.934-3.742-2.883-6.371-5.704-12.772-8.606-19.133-2.093-4.587-4.267-9.135-6.44-13.684-.365-.763-.913-1.434-1.419-2.217-.347.317-.574.453-.705.653-4.71 7.246-11.307 12.183-18.719 16.127-6.22 3.309-12.809 4.228-19.697 3.185-1.163-.177-2.325-.371-3.638-.581-.186 2.37.304 4.428.847 6.475 2.408 9.093 4.94 18.154 7.175 27.29.672 2.74 2.12 4.279 4.445 5.41 5.66 2.758 11.54 3.029 17.532 1.667 10.146-2.306 18.784-7.64 26.668-14.373 2.164-1.848 3.732-4.198 4.491-7.078zm-121.763-23.746c.176-.11.299-.143.319-.207.302-1.015.609-2.03.882-3.056 2.315-8.668 6.277-16.343 12.606-22.688 4.743-4.757 9.927-8.899 15.537-12.504.935-.599 1.86-1.214 3.051-1.993-.773-.368-1.22-.603-1.685-.8-2.887-1.217-4.315-3.492-4.423-6.625-.056-1.684.035-3.382.168-5.065.131-1.67.398-3.328.646-5.321-4.917 3.397-9.512 1.969-14.151-.325-.744 1.068-1.455 2.07-2.148 3.083-2.853 4.166-4.497 4.42-8.207 1.097-1.26 2.157-2.093 5.05-5.305 4.59-2.842-.406-3.085-2.965-3.703-5.269a6.825 6.825 0 00-.58 2.203c-.105 1.152-.046 2.324-.22 3.461-.266 1.737-1.379 2.824-2.87 3.009-1.55.192-2.736-.527-3.507-2.176-.253-.54-.424-1.121-.525-1.391-1.468-.53-2.653-.956-3.957-1.425-.296.866-.54 1.803-.93 2.67-.72 1.6-1.963 2.344-3.516 2.22-1.573-.125-2.545-1.07-3.051-2.516-.23-.657-.28-1.388-.362-2.091-.152-1.306-.267-2.616-.371-3.665h-4.882c-.932 1.147-2.352 1.948-4.128 1.22-1.848-.76-2.394-2.428-2.582-4.297-.096-.947-.26-1.888-.451-3.254-1.746 1.968-2.908 4.314-5.63 3.755-2.768-.567-2.876-3.124-3.392-5.464-.529.385-.855.673-1.224.884-2.437 1.387-4.712.458-5.514-2.26-.149-.506-.3-1.055-.258-1.568.101-1.214-.365-2.013-1.356-2.636-.464-.292-.792-.815-1.196-1.25-.562.722-.975 1.42-1.541 1.945-1.68 1.557-4.278 1.184-5.36-.84-.435-.818-.6-1.852-.659-2.803-.103-1.654-.029-3.319-.029-5.009-.531-.026-.786-.076-1.03-.042-3.267.445-4.894-.95-5.002-4.34-.025-.8.083-1.6.078-2.402-.012-1.77-.933-2.507-2.607-2.183-.916.179-1.848.27-2.99.43-.394 3.594-.823 7.2-1.153 10.814-.05.561.313 1.182.55 1.747 2.045 4.857 4.877 9.213 8.03 13.373 1.385 1.826 2.73 3.689 3.99 5.606 3.32 5.053 7.074 9.655 12.059 13.108 7.489 5.188 15.163 10.085 23.338 14.022 10.597 5.104 19.558 12.148 26.441 21.897.99 1.404 1.873 2.888 2.8 4.33zm92.964-30.43c-.345.968-.566 1.613-.802 2.251-.797 2.15-2.061 2.995-3.674 2.46-1.464-.485-2.014-1.905-1.528-3.986.16-.69.427-1.364.527-2.063.435-3.072.923-6.142 1.193-9.23.138-1.577-.166-3.105-1.19-4.525-.522-.725-.411-2.001-.427-3.03-.035-2.392.172-4.797-.015-7.173-.082-1.043-.695-2.205-1.402-2.996-1-1.122-1.548-2.285-1.673-3.78-.298-3.59-1.717-6.69-4.169-9.266-1.74-1.827-2.903-3.898-3.504-6.426-.601-2.525-2.094-4.346-4.74-5.17-8.863-2.767-17.94-3.957-27.164-4.365-6.645-.295-12.169 2.149-16.364 7.21-2.844 3.431-5.137 7.375-7.405 11.256-.85 1.45-1.136 3.355-1.302 5.09-.192 2.022.9 2.763 2.773 2.106a6.166 6.166 0 002.003-1.201c1.64-1.454 3.274-2.927 4.782-4.519.945-.997 1.904-2.117 2.434-3.369 1.377-3.252 3.707-5.295 6.87-6.487 2.574-.97 5.252-1.282 7.946-.997 6.902.729 13.796 1.542 20.687 2.387 1.542.19 3.088.533 4.571 1.008 1.349.43 1.938 1.604 1.76 2.908-.173 1.276-1.094 2.12-2.515 2.257-.43.042-.87.016-1.298-.044-5.587-.767-11.168-1.582-16.76-2.31-2.664-.344-5.348-.716-8.026-.744-5.157-.053-7.5 1.578-9.249 6.497-1.126 3.166-2.075 6.427-2.754 9.722-.554 2.68-.646 5.47-.826 8.217-.076 1.166.145 2.356 1.708 2.304.194-.207.373-.31.42-.46 1.745-5.665 5.085-10.212 9.094-14.422 3.139-3.294 6.586-4.987 11.128-4.494 5.435.589 10.892.93 16.34 1.388 1.037.086 2.08.162 3.102.352 1.618.303 2.549 1.497 2.416 2.957-.123 1.356-1.097 2.297-2.654 2.445-.684.064-1.384-.026-2.073-.084-5.967-.515-11.933-1.037-17.898-1.556-1.589-.138-3.154-.094-4.439 1.047-3.839 3.415-7.286 7.177-9.123 12.14-.502 1.355-.642 2.958-.543 4.418.133 1.975 1.142 2.511 2.842 1.59 1.205-.653 2.247-1.632 3.329-2.51 2.916-2.373 5.797-4.792 8.73-7.144.922-.739 2.013-1.055 3.186-.586 4.277 1.704 8.757 2.074 13.285 2.15.603.01 1.242.005 1.802.193 1.175.396 1.89 1.246 1.872 2.582-.02 1.321-.685 2.2-1.91 2.533-.659.178-1.373.208-2.062.206-4.092-.014-8.167-.342-12.106-1.502-1.455-.428-2.522-.194-3.576.741-2.616 2.32-5.226 4.643-7.855 6.978.285.727.449 1.222.671 1.689.266.558.557 1.107.879 1.634 3.15 5.17 7.581 8.47 13.439 9.692 1.103.23 2.227.424 3.281.807 1.34.487 1.981 1.644 1.808 2.89-.17 1.23-1.14 2.195-2.526 2.28-.85.051-1.714-.185-2.575-.27-.626-.06-1.257-.083-2.221-.145 2.01 6.32 3.91 12.287 5.825 18.304 3.27.583 6.603.635 9.79-.293 9.589-2.788 17.373-8.308 23.086-16.762.281-.416.426-.93.533-1.171-1.944-3.912-3.773-7.595-5.764-11.609zm.01-23.88c-.219 2.866-.256 5.396.802 7.854.521 1.213.804 2.535 1.183 3.813 1.897 6.391 3.884 12.748 7.238 18.538.376.65.831 1.593 1.395 1.72 2.132.485 3.223 2.074 4.14 3.784 2.214 4.13 4.455 8.256 6.415 12.514 3.332 7.24 6.43 14.595 9.693 21.869.783 1.746 1.398 3.661 3.178 4.759.322.198.462.729.65 1.125.742 1.585 1.28 3.309 2.233 4.745 4.491 6.768 9.242 13.359 13.619 20.203 4.563 7.138 9 14.378 13.134 21.785 3.963 7.1 7.361 14.528 11.19 21.71 5.427 10.171 10.124 20.668 14.014 31.55.215.6.543 1.161.816 1.74a50.1 50.1 0 01.515-.152c-.494-3.96-.732-7.976-1.528-11.87-2.836-13.84-5.65-27.695-8.886-41.442-2.642-11.234-5.596-22.412-8.93-33.452-3.705-12.265-9.406-23.715-14.753-35.302-5.48-11.88-12.543-22.552-21.873-31.599-6.94-6.73-13.789-13.565-22.155-18.498-3.76-2.215-7.527-4.396-12.09-5.394zm-57.192 18.084c-3.816 2.732-8.119 5.586-12.167 8.777-4.136 3.256-7.917 6.957-10.904 11.402-5.118 7.61-7.251 16.277-8.344 25.288-.104.843.086 1.776.336 2.603 2.29 7.563 4.8 15.062 6.898 22.679 2.477 8.986 4.95 18.001 6.802 27.138 1.976 9.748 3.266 19.646 4.779 29.492 1.622 10.551 3.15 21.118 4.737 31.675.111.747.371 1.468.62 2.43 3.569-1.076 6.874-2.138 10.213-3.065 3.678-1.02 7.37-2.007 11.09-2.838 4.157-.93 7.682.493 10.683 3.473.302.3.636.567.938.833 5.216-1.914 9.393-5.101 12.782-9.451.73-.938.95-1.743.568-2.904-.58-1.769-1.013-3.591-1.423-5.412-1.82-8.06-4.238-16.045-5.253-24.212-1.358-10.932-1.645-22.004-2.329-33.02-.115-1.832.252-3.685-1.223-5.215-.43-.446-.442-1.322-.625-2.007-2.586-9.7-5.233-19.381-7.708-29.109-.695-2.736-.984-5.598-1.267-8.422-.314-3.148.543-5.798 3.828-7.012-.37-1.172-.719-2.175-1.002-3.194-1.33-4.781-2.607-9.578-4.009-14.337-.19-.639-.894-1.236-1.501-1.608-2.34-1.44-4.406-3.199-6.018-5.444-1.68-2.345-3.238-4.785-4.776-7.072l-5.725-1.468zm-11.628-48.727c1.913-1.514 3.472-2.956 5.227-4.078 1.755-1.12 3.621-2.321 5.59-2.764 3.067-.69 4.092-3.042 5.163-5.446.676-1.518.053-2.477-1.64-2.808-1.188-.232-2.4-.368-3.606-.474-2.766-.247-5.554-.313-8.296-.711-1.952-.287-3.967-.73-5.745-1.567-5.114-2.413-5.727-7.879-1.452-11.65 2.118-1.868 4.667-2.733 7.355-3.131 6.133-.909 12.286-.747 18.438-.181 1.085.1 2.173.153 3.186.223 2.223-8.297 2.557-36.679.562-43.096-1.722.573-3.438 1.171-5.169 1.715-8.743 2.746-17.776 3.034-26.802 3.111-4.501.039-8.575-1.517-11.525-5.229a82.019 82.019 0 01-5.053-7.112c-3.087-4.871-5.406-10.147-7.432-15.56-.488-1.305-.988-2.605-1.509-3.975l-7.36 1.206c0 1.928-.108 3.617.018 5.288.544 7.223.126 14.405-.608 21.593-.498 4.884-2.572 8.42-7.242 10.062-1.885.662-3.746 1.427-5.671 1.925-2.941.762-5.908 1.473-8.902 1.955-6.78 1.093-13.568 1.848-20.467.846-4.578-.665-8.184-2.798-10.997-6.43a45.93 45.93 0 01-3.377-5.064c-3.516-6.058-6.327-12.471-8.773-19.048-.514-1.383-1.179-2.133-2.66-2.46-4.747-1.044-9.455-2.278-14.183-3.419-.526-.127-1.083-.122-1.71-.188.764 3.07 1.713 5.87 2.126 8.75.856 5.982 1.455 12.003 2.094 18.016.126 1.187.276 2.098 1.374 2.903 1.66 1.216 1.934 3.125.607 4.66-1.196 1.385-1.091 2.664-.613 4.136.176.1.317.215.476.265 3.62 1.137 4.434 3.182 2.217 6.303-1.057 1.486-.613 2.583.018 3.928.432.104.863.17 1.267.314 2.154.766 2.95 2.389 2.251 4.597a7.996 7.996 0 01-.624 1.467c-.895 1.61-.876 3.16.301 4.863 1.003-1.637 1.937-3.371 4.162-2.974 2.48.444 2.68 2.58 2.94 4.651.53-.196.848-.336 1.178-.432 3.15-.919 5.324.68 5.422 4.056a18.62 18.62 0 01-.233 3.459c-.643 4.03-1.375 8.043-2 12.077-.063.406.372.895.576 1.346.826-1.945 1.133-3.766 1.51-5.57.511-2.456 1.964-3.675 3.892-3.345 1.901.325 2.87 1.963 2.617 4.505-.13 1.307-.327 2.61-.504 3.99.367 0 .614.045.839-.007 2.697-.635 4.108.108 4.932 2.798.44 1.438.59 2.966 1.001 4.416.214.756.037 1.76.95 2.332.62-1.522 1.043-2.982 1.778-4.254.877-1.518 2.638-1.96 4.11-1.312 1.388.61 2.155 2.06 1.88 3.725-.116.695-.439 1.348-.61 2.035-.222.883-.387 1.783-.66 3.06.99-.558 1.499-.895 2.045-1.147 2.674-1.234 5.158-.134 5.924 2.76.395 1.49.462 3.07.68 4.626 1.818-.577 1.813-.579 2.274-1.878.237-.667.417-1.372.755-1.981.827-1.486 2.273-2.11 3.744-1.715 1.427.385 2.41 1.749 2.386 3.42-.01.686-.165 1.37-.268 2.164.38-.076.617-.102.841-.172 3.371-1.047 5.314.657 4.714 4.186-.208 1.226-.604 2.42-.78 3.647-.07.485.227 1.024.428 1.823.943-1.847 1.553-3.445 2.495-4.8 1.855-2.669 4.8-2.659 6.769-.125.31.4.582.833.942 1.352 2.863-1.77 4.785-.41 6.25 2.029.821-.748 1.413-1.412 2.12-1.901 1.42-.984 3.202-.807 4.305.322 1.142 1.17 1.24 2.798.256 4.37-.326.521-.764.992-.983 1.555-.345.883.008 1.352 1.12 1.233.224-.909.442-1.852.69-2.787.317-1.2.597-2.416 1.012-3.582a5.614 5.614 0 011.082-1.802c.975-1.094 2.593-1.348 3.831-.72 1.333.68 2.005 2.124 1.65 3.848-.32 1.565-.776 3.1-1.16 4.65-.19.762-.182 1.433 1.14 1.605.375-1.86.761-3.731 1.13-5.604.258-1.308.367-2.66.76-3.92.624-1.994 2.318-2.992 3.999-2.557 1.735.45 2.688 2.047 2.44 4.142-.1.837-.26 1.666-.42 2.664 1.224-.08 2.14-.14 3.139-.207.218-1.081.336-2.057.622-2.976.366-1.175.701-2.421 1.345-3.437 1.388-2.185 3.666-2.315 5.519-.494.326.32.696.592 1.565 1.323-.182-1.303-.314-1.952-.351-2.607-.06-1.05-.25-2.145-.041-3.145.5-2.375 2.12-3.288 4.474-2.73.331.079.655.195.923.277zM100.026 119.68c.038.013.35.16.678.233 3.728.818 7.457 1.635 11.191 2.426.5.106 1.043.168 1.54.086 3.763-.623 7.538-1.186 11.272-1.958 13.625-2.82 27.386-4.584 41.242-5.496 4.656-.306 9.356.147 14.032.06 3.721-.068 7.497-.08 11.142-.74 5.622-1.018 11.14-2.621 16.723-3.882 10.341-2.337 20.745-4.26 31.375-4.529.393-.01.781-.212 1.265-.352-.251-2.147-.355-4.201-.753-6.193-1.554-7.75-3.246-15.472-4.806-23.222-2.225-11.077-7.267-20.699-14.3-29.283-2.998-3.66-6.545-6.604-11.087-8.093-4.769-1.562-9.52-3.175-14.517-4.846-2.63 6.73-6.863 10.271-14.04 7.641-.628.902-1.073 1.667-1.636 2.326-.969 1.132-1.883 2.374-3.044 3.262-4.593 3.518-9.479 4.093-14.61 1.189-2.098-1.188-4.22-2.335-6.444-3.562-2.452 4.195-6.15 4.887-10.117 4.44-2.2-.247-4.38-.956-6.485-1.706-1.15-.41-2.022-.53-3.153.083-3.618 1.96-7.48 2.76-11.578 2.13-.92-.14-1.855-.182-2.737-.265-.3.501-.512.784-.65 1.1-1.258 2.879-3.442 4.353-6.484 4.598-2.236.18-4.467.424-7.052.674-.028 1.004-.197 2.134-.063 3.224.47 3.843-.15 7.437-1.984 10.826-.842 1.556-1.587 3.166-2.432 4.72-.647 1.188-.731 2.344-.095 3.55.165.312.273.655.436.969 2.24 4.313 2.357 8.684.255 13.067-.89 1.855-.884 3.398.46 5.14 2.036 2.639 2.145 5.779 1.225 8.9-.474 1.605-1.27 3.11-1.935 4.654-.28.649-.678 1.255-.88 1.925-.677 2.258-1.29 4.536-1.954 6.904zm168.96 239.411c-.073.533-.177.875-.16 1.21.319 6.135.584 12.273 1.002 18.4.277 4.084.58 8.182 1.21 12.217 1.913 12.238 5.122 24.175 8.67 35.99 3.655 12.157 7.846 24.124 13.192 35.658 5.347 11.535 11.333 22.652 18.721 32.933 3.395 4.725 6.832 9.431 11.501 13.01 10.043 7.7 21.56 10.818 33.835 11.43 7.2.361 13.024-2.535 17.156-8.704 1.177-1.756 2.422-3.505 3.326-5.41 6.6-13.891 8.61-28.376 5.618-43.635-2.74-13.98-7.98-27.059-13.2-40.145-4.639-11.633-10.786-22.518-16.478-33.622-3.228-6.297-6.523-12.59-10.257-18.576-5.467-8.769-11.349-17.267-17.07-25.87-.92-1.383-1.923-2.71-2.916-4.103-1.763 1.935-3.293 3.867-5.08 5.512-1.865 1.716-3.895 3.28-5.994 4.694-7.438 5.008-15.178 9.338-24.12 10.866-5.746.981-11.4.877-16.923-1.25-.623-.238-1.28-.384-2.032-.605zm-48.536 77.02c-.307-2.686-.514-5.072-.863-7.437-2.015-13.635-4.039-27.27-6.106-40.898-3.496-23.039-9.867-45.302-17.446-67.222-1.854-5.357-4.195-10.49-8.02-14.827-4.81-5.453-9.876-10.5-16.363-13.84-3.565-1.836-7.29-3.458-10.567-5.741-3.294-2.296-6.454-2.42-10.008-1.246-2.228.737-4.526 1.214-6.362 2.878-2.611 2.37-5.086 4.847-6.881 7.957-1.238 2.143-2.407 4.338-3.788 6.383-.922 1.364-2.005 2.72-3.294 3.692-2.207 1.658-4.696 1.375-6.601-.65-1.13-1.197-2.16-2.59-2.89-4.073-3.133-6.35-6.238-12.718-9.142-19.181-1.226-2.728-2.216-5.644-2.817-8.58-1.39-6.788-2.475-13.64-3.689-20.464-.16-.903-.353-1.798-.569-2.886-.932.535-1.53.883-2.132 1.222-6.618 3.72-13.24 7.428-19.855 11.154-7.83 4.408-15.674 8.79-23.468 13.263-3.252 1.866-6.398 3.93-9.57 5.936-.45.284-.783.763-1.516 1.502 6.675.791 11.124 4.55 14.668 9.436 2.734 3.769 5.308 7.725 7.444 11.872 6.903 13.406 12.17 27.558 17.211 41.77 5.546 15.63 10.786 31.38 15.89 47.17 6.38 19.743 14.635 38.84 19.332 59.157.859 3.715 1.57 7.467 2.357 11.198.15.715.333 1.42.537 2.283.949-.485 1.572-.789 2.182-1.118 9.464-5.103 19.277-9.357 29.412-12.848 13.319-4.586 26.632-9.187 40.353-12.391 3.295-.771 6.584-1.559 9.885-2.31 1.842-.418 3.687-.953 5.557-1.115 2.229-.195 4.487-.046 7.119-.046zm-100.611 27.727c-.125-1.15-.123-2.217-.37-3.218-.89-3.62-1.837-7.227-2.813-10.824-1.137-4.192-2.142-8.436-3.528-12.542-3.749-11.097-7.78-22.095-11.497-33.205-7.995-23.902-15.448-47.996-24.644-71.467-3.596-9.177-7.373-18.262-11.877-26.997-1.894-3.671-4.378-7.042-6.775-10.415-3.414-4.806-8.244-6.841-13.937-7.082-2.225-.094-4.11.4-5.545 2.256-.592.765-1.28 1.452-1.898 2.199-2.691 3.256-5.3 6.587-8.073 9.768-5.306 6.086-9.802 12.694-12.712 20.336-1.23 3.23-2.266 6.534-3.424 9.79-3.59 10.1-5.692 20.542-6.597 31.22-.995 11.74-.948 23.492.562 35.189 1.299 10.06 2.909 20.074 5.693 29.838.9 3.159 1.994 6.259 2.96 9.397 4.82 15.657 10.744 30.83 18.76 45.087 4.768 8.482 9.563 16.948 14.28 25.46 5.382 9.712 11.654 18.786 18.883 27.118 5.16 5.947 10.88 11.368 18.363 14.114 4.806 1.763 9.735 3.317 14.73 4.359 8.073 1.682 16.253 2.894 24.512 3.072 5.28.114 10.578-.036 15.853-.345 4.874-.286 9.54-1.79 14.2-3.21 7.815-2.382 15.6-4.789 23.023-8.372 10.932-5.28 21.281-11.619 31.756-17.741 8.82-5.156 17.583-10.417 26.493-15.402 4.96-2.774 9.842-5.538 13.865-9.716 1.273-1.32 1.976-2.674 1.854-4.468a93.016 93.016 0 00-.488-5.045c-1.01-8.238-3.48-15.96-7.813-23.007-2.407-3.914-4.798-7.84-7.3-11.689-1.874-2.884-3.746-5.8-5.929-8.432-1.897-2.287-4.161-4.272-6.386-6.243-1.476-1.307-3.33-1.766-5.302-1.93-3.426-.287-6.668.492-9.998 1.153-18.373 3.641-36.096 9.58-53.682 15.945-6.771 2.45-13.338 5.554-19.853 8.678-9.612 4.607-18.331 10.836-27.419 16.396-.812.496-1.638 1.053-2.531 1.305-1.194.339-2.24-.148-2.872-1.287-.641-1.16-.407-2.26.471-3.173.482-.499 1.07-.91 1.659-1.28 4.069-2.557 8.154-5.087 12.226-7.639.776-.488 1.517-1.035 2.568-1.756-3.813-1.122-7.132-.773-10.45-.012-.846.194-1.692.45-2.55.515-1.422.108-2.468-.65-2.807-1.867-.374-1.344.198-2.584 1.57-3.275.461-.232.972-.418 1.478-.488 2.74-.38 5.48-.783 8.231-1.042 1.54-.144 3.102-.026 5.08-.026zm-4.019-236.282l1.278-11.94c-.643-.097-1.116-.185-1.593-.237-2.378-.256-3.703-1.716-3.32-4.102.487-3.038-1.17-4.935-3.222-6.379-1.641-1.153-2.317-2.445-2.384-4.384-.038-1.111-.357-2.245-.73-3.301-.589-1.672-1.356-3.275-1.997-4.929-.51-1.317-.886-2.619-2.276-3.407-1.057-.6-1.492-1.948-1.077-3.064 1.222-3.29-.51-6.05-1.15-9.21-.613.105-1.1.159-1.573.274-4.284 1.041-7.985-.148-10.843-3.467-1.765-2.048-3.468-4.318-4.553-6.787-3.97-9.04-6.872-18.497-8.082-28.329-.768-6.235.606-12.256 5.063-17.072.83-.896 1.78-1.675 2.833-2.653l-1.094-2.757c-6.38-1.862-8.19-8.585-6.925-14.806.262-1.287.805-2.543 1.391-3.722.545-1.096 1.32-2.07 2.139-3.317-5.606-6.549-5.738-13.322-.093-20.124-2.543-4.753-2.346-9.606-.518-14.468 1.119-2.976 2.866-5.505 5.64-7.11.895-.517 1.43-1.137 1.664-2.202.225-1.026.644-2.044 1.157-2.96 1.454-2.597 3.579-4.07 6.623-3.805.514.044 1.029.075 1.924.139.085-.832.4-1.684.204-2.387-.702-2.52-.242-4.84 1.172-6.863 1.301-1.863 2.765-3.67 4.43-5.188 2.216-2.022 4.897-3.022 8.086-2.264 2.25-4.904 4.996-9.054 11.415-7.062 1.078-3.505 2.546-6.7 5.447-8.923 2.964-2.27 6.215-2.493 9.656-1.166.513-.642.946-1.182 1.376-1.725 3.988-5.046 7.564-5.686 13.04-2.143.56-.54 1.178-1.122 1.78-1.719 3.3-3.266 7.244-4.48 11.719-3.68 4.358.78 8.27 2.615 11.581 5.693.248.23.54.412.919.697 2.916-2.183 6.013-3.718 9.666-2.178 3.521 1.485 4.652 4.804 5.675 8.353.73-.273 1.355-.493 1.97-.74 4.632-1.865 8.333-.682 10.95 3.673.89 1.482 1.956 2.125 3.631 1.896a16.55 16.55 0 013.115-.127c3.807.203 6.28 2.586 6.766 6.455.088.69.136 1.386.197 2.029 6.387 2.406 6.967 2.952 9.012 8.534.58.076 1.25.15 1.913.253 3.935.607 6.56 2.846 7.404 6.842.527 2.5.593 5.101.876 7.76 5.965 3.322 6.453 8.943 5.507 15.216 4.23 2.518 4.684 6.454 3.662 10.86-.445 1.915-.85 3.66.19 5.642.928 1.768.14 3.693-1.006 5.24-.86 1.162-1.047 2.302-.81 3.725.78 4.736 1.438 9.493 2.157 14.24.064.425.218.836.4 1.515 1.138 0 2.25-.034 3.36.007 1.955.073 3.417.998 3.753 3.03.517 3.145 1.054 6.317 1.175 9.495.261 6.854.208 13.716-.941 20.511-.223 1.313-.285 2.741-.857 3.888-1.197 2.4-.84 4.81-.619 7.286.379 4.249.7 8.503.978 12.76.406 6.223.64 12.45-.021 18.673-.432 4.055-.902 8.106-1.367 12.267.24.146.516.359.82.492 3.385 1.478 5.56 4.038 6.931 7.538 1.943 4.955 4.064 9.832 5.193 15.081.222 1.034.654 2.02.99 3.029 1.453.416 2.847.939 4.286 1.205 4.815.89 7.651 4.036 9.063 8.568.656 2.111 1.633 3.84 3.074 5.448 2.584 2.884 4.204 6.325 4.77 10.209.338 2.313 1.61 3.519 3.676 4.29 3.822 1.426 7.716 2.754 11.335 4.622 6.137 3.17 11.829 7.104 16.884 11.935 4.002 3.824 8.066 7.58 11.974 11.5 6.933 6.96 12.75 14.824 17.22 23.668 7.193 14.232 14.175 28.6 18.936 43.903 3.373 10.837 6.17 21.883 8.774 32.948 3.197 13.576 6.022 27.247 8.826 40.917 1.705 8.301 1.978 16.785 2.362 25.233.299 6.586.814 13.11 2.032 19.614 2.522 13.492.715 26.568-4.306 39.248-1.876 4.739-4.222 9.143-7.413 13.105-4.853 6.022-11.019 9.043-18.618 9.033-1.28-.002-2.559 0-4.087 0 .533 3.951 1.015 7.552 1.503 11.151.07.53.218 1.052.234 1.58.04 1.573-.755 2.698-2.055 2.987-1.273.282-2.476-.41-3.044-1.9-.312-.82-.474-1.711-.61-2.586-.506-3.251-1.025-6.5-1.431-9.764-.217-1.727-1.119-2.308-2.706-2.598-9.515-1.743-18.37-5.127-26.2-11.128-5.38-4.122-9.374-9.495-13.256-14.963-4.654-6.551-8.964-13.343-12.6-20.56-.237-.466-.518-.91-.974-1.708-3.785 2.25-7.498 4.453-11.449 6.8-.017 3.67-2.726 5.472-5.426 7.342-5.891 4.088-11.805 8.146-17.583 12.402-2.95 2.173-5.524 4.879-8.442 7.1-3.4 2.586-6.994 4.907-10.74 7.507 0 .532-.084 1.412.014 2.267.882 7.781 1.805 15.556 2.691 23.335.121 1.06.221 2.14.143 3.197-.123 1.676-1.242 2.782-2.624 2.794-1.286.01-2.395-.88-2.611-2.498-.379-2.818-.508-5.672-.834-8.498-.671-5.828-1.403-11.649-2.147-17.761-.826.374-1.454.593-2.018.925-12.044 7.084-24.054 14.224-36.121 21.264-13.028 7.6-26.684 13.632-41.236 17.507-5.642 1.502-11.264 3.028-17.099 3.259-7.98.316-15.963.168-23.905-.85a316.56 316.56 0 01-9.79-1.423c-8.177-1.308-16.127-3.541-23.66-7.028-6.927-3.207-12.384-8.53-17.34-14.289-7.486-8.698-14.011-18.125-19.582-28.248-4.522-8.216-9.148-16.371-13.765-24.53-8.405-14.86-14.657-30.664-19.608-47.032-1.85-6.112-3.886-12.21-5.117-18.466-1.8-9.149-3.337-18.39-4.276-27.667-1.03-10.185-.909-20.447.064-30.676.939-9.872 2.79-19.545 5.8-28.97 1.348-4.225 2.77-8.43 4.328-12.58 3.155-8.41 8.006-15.737 13.856-22.417 2.491-2.844 4.9-5.768 7.244-8.74 3.084-3.914 6.836-6.942 10.823-9.866 13.68-10.034 28.615-17.767 43.452-25.717 5.456-2.924 10.71-6.24 16.07-9.353 1.928-1.12 2.941-2.64 3.363-4.999.796-4.45 2.932-8.322 5.977-11.655 1.102-1.205 2.366-1.301 4.122-.789zm39.009-117.523c-4.226.305-8.47.455-12.672.967-3.163.384-6.267 1.262-9.408 1.857-1.087.206-2.23.405-3.31.278-1.611-.19-2.679-1.41-2.949-2.952-.278-1.59.267-2.874 1.63-3.6 2.222-1.182 4.454-2.401 6.8-3.274 4.669-1.736 9.553-2.655 14.51-2.618 3.723.027 7.387.872 10.886 2.281.4.161.782.388 1.138.635 1.54 1.072 2.242 2.595 1.896 4.057-.354 1.496-1.555 2.369-3.572 2.514-.861.062-1.731-.012-2.597.004-.778.015-1.556.068-2.334.104l-.018-.253m69.677-7.456c-5.009-.092-9.803 1.01-14.456 2.85-1.133.447-2.269.896-3.434 1.228-1.792.51-3.433.126-4.86-1.13-1.921-1.692-2.308-3.955-.603-5.864 1.192-1.335 2.726-2.59 4.352-3.233 6.623-2.623 13.477-3.187 20.42-1.505 1.317.32 2.53 1.11 3.773 1.723 1.284.632 2.079 1.62 1.86 3.172-.187 1.346-1.59 2.61-3.156 2.737-1.29.105-2.596.022-3.896.022M208.9 192.017c-.14 2.52-.916 4.015-2.924 4.45-1.737.377-2.856-.539-4.88-3.877-3.004 4.64-4.013 5.04-7.555 3.15-1.263.703-2.41 1.805-3.615 1.878-1.162.07-2.385-.92-3.82-1.55-.244.37-.657 1.122-1.184 1.778-1.328 1.653-3.15 1.904-4.87.876-1.069-.64-2.24-1.098-3.465-1.684-.444.686-.718 1.105-.987 1.528-1.42 2.227-2.616 2.554-5.035 1.562-.66-.27-1.46-.264-2.192-.252-2.276.038-3.77-1.49-3.64-3.826.024-.44.145-.876.227-1.312.748-3.985 2.007-4.882 6.028-4.18.322-.876.578-1.817 1.006-2.667.47-.936.99-1.895 1.685-2.655 1.068-1.167 2.477-1.684 4.032-1.21 1.596.486 2.382 1.675 2.414 3.394.005.226.138.451.345 1.09.887-1.921 1.068-3.97 3.01-4.748 2.145-.858 3.427.413 4.57 1.992 2.616-3.42 3.616-3.725 7.235-2.187.342-.542.677-1.13 1.066-1.678 1.735-2.445 4.26-2.86 6.527-.933.957.814 1.806 1.33 3.14 1.453 1.088.1 2.09 1.181 3.538 2.082 3.199-.387 4.251.267 5.674 3.965.318.827.687 1.634.968 2.474.592 1.77.106 3.333-1.259 4.2-1.438.915-3.144.565-4.41-.938-.472-.56-.884-1.175-1.63-2.175m-15.828-15.143c-1.364.068-2.143.14-2.922.138-2.068-.006-3.248-.914-3.35-2.53-.104-1.651.958-2.714 3.003-2.919 1.638-.164 3.284-.248 4.925-.387 3.086-.26 6.244-2.95 6.785-6.03.187-1.065.07-2.406-.424-3.33a45.355 45.355 0 00-3.992-6.187c-2.084-2.722-4.443-5.222-6.522-7.948-.887-1.163-1.522-2.6-1.983-4.012-.517-1.585.256-3.033 1.55-3.515 1.25-.466 2.65-.032 3.265 1.418 1.747 4.12 4.953 7.042 7.764 10.28 2.098 2.417 3.836 5.034 5.089 8.002 1.372 3.251 1.179 6.368-.521 9.46-2.924 5.315-7.234 8.004-12.667 7.56m.536 34.234c-4.897.21-9.271-1.582-12.887-5.34-.244-.252-.512-.488-.716-.77-.823-1.146-.83-2.476-.044-3.452.8-.993 2.063-1.285 3.288-.604a9.498 9.498 0 012.073 1.59c2.411 2.423 5.421 3.134 8.616 3.056 2.783-.066 5.52-.6 8.074-1.848.625-.305 1.261-.62 1.927-.79 1.228-.316 2.245.115 2.883 1.244.652 1.152.44 2.307-.457 3.17-.677.654-1.536 1.166-2.393 1.559-3.21 1.474-6.6 2.157-10.364 2.185m82.57 119.86c-.272 2.854-1.375 4.725-3.24 5.092-1.727.338-3.544-.86-4.56-3.193-.45-1.035-.747-2.173-.917-3.297-.369-2.44 1.308-5.043 3.586-5.758 1.343-.42 2.715.076 3.404 1.664.758 1.747 1.168 3.654 1.728 5.492M153.206 134.761c-.005 2.582-2.133 4.963-4.48 5.011-2.393.05-4.532-2.449-4.488-5.242.041-2.658 1.938-4.795 4.256-4.795 2.55 0 4.718 2.311 4.712 5.026m65.012-11.855c2.628.036 4.574 1.893 4.588 4.38.015 2.57-2.087 4.737-4.605 4.746-2.454.01-4.181-1.982-4.13-4.76.052-2.748 1.622-4.4 4.147-4.366m-134.55 16.04c.11-.789.12-1.7.384-2.528.426-1.334 1.573-2.026 2.811-1.895 1.264.134 2.094.991 2.271 2.505.218 1.853.174 3.756.565 5.565.561 2.593 1.408 5.122 2.148 7.674.123.424.348.816.488 1.236.668 2.008.236 3.443-1.221 4.111-1.447.664-2.955.064-3.678-1.925-1.177-3.237-2.146-6.56-3.053-9.89-.416-1.529-.478-3.159-.716-4.853" fill="#212733" fill-rule="evenodd"/></svg>
