<?xml version="1.0" encoding="UTF-8"?>
<svg width="128px" height="128px" viewBox="0 0 128 128" version="1.1" xmlns="http://www.w3.org/2000/svg" xmlns:xlink="http://www.w3.org/1999/xlink">
    <style>
        @media (prefers-color-scheme: light) {
            path {
                fill: #212733;
            }
        }
        @media (prefers-color-scheme: dark) {
            path {
                fill: #ffffff;
            }
        }
    </style>
    <g stroke="none" stroke-width="1" fill="none" fill-rule="evenodd">
        <path d="M112.390244,0 C121.011274,-1.58365756e-15 128,6.98872586 128,15.6097561 L128,112.390244 C128,121.011274 121.011274,128 112.390244,128 L15.6097561,128 C6.98872586,128 1.05577171e-15,121.011274 0,112.390244 L0,15.6097561 C-1.05577171e-15,6.98872586 6.98872586,1.58365756e-15 15.6097561,0 L112.390244,0 Z M64,32.7804878 C46.7579395,32.7804878 32.7804878,46.7579395 32.7804878,64 C32.7804878,81.2420605 46.7579395,95.2195122 64,95.2195122 C81.2420605,95.2195122 95.2195122,81.2420605 95.2195122,64 C95.2195122,46.7579395 81.2420605,32.7804878 64,32.7804878 Z" fill="#355fc5"/>
    </g>
</svg>
