<?xml version="1.0" encoding="UTF-8"?>
<svg width="904px" height="640px" viewBox="0 0 904 640" version="1.1" xmlns="http://www.w3.org/2000/svg" xmlns:xlink="http://www.w3.org/1999/xlink">
    <!-- Generator: Sketch 64 (93537) - https://sketch.com -->
    <title>hero</title>
    <desc>Created with Sketch.</desc>
    <g id="hero" stroke="none" stroke-width="1" fill="none" fill-rule="evenodd">
        <path d="M190.48,548 C194.16,548 197.307,549.307 199.92,551.92 L228.08,580.08 C230.693,582.693 232,585.84 232,589.52 L232,659.68 C232,664.373 230.453,668.267 227.36,671.36 C224.267,674.453 220.373,676 215.68,676 L152.32,676 C147.627,676 143.733,674.453 140.64,671.36 C137.547,668.267 136,664.373 136,659.68 L136,564.32 C136,559.627 137.547,555.733 140.64,552.64 C143.733,549.547 147.627,548 152.32,548 L190.48,548 L190.48,548 Z M190.48,556 L152.32,556 C149.76,556 147.733,556.747 146.24,558.24 C144.747,559.733 144,561.76 144,564.32 L144,659.68 C144,662.24 144.747,664.267 146.24,665.76 C147.733,667.253 149.76,668 152.32,668 L215.68,668 C218.24,668 220.267,667.253 221.76,665.76 C223.253,664.267 224,662.24 224,659.68 L224,589.52 C224,588.08 223.467,586.827 222.4,585.76 L194.24,557.6 C193.173,556.533 191.92,556 190.48,556 L190.48,556 Z M206.64,611.12 C206.64,611.76 206.533,612.293 206.32,612.72 C206.075458,613.222151 205.751268,613.68142 205.36,614.08 C204.827,614.507 204.373,614.8 204,614.96 C203.36,615.173 202.8,615.28 202.32,615.28 C201.893,615.28 201.36,615.173 200.72,614.96 C200.187,614.693 199.76,614.4 199.44,614.08 C199.048732,613.68142 198.724542,613.222151 198.48,612.72 C198.267,612.293 198.16,611.76 198.16,611.12 C198.16,610.48 198.267,609.947 198.48,609.52 C198.693,609.04 199.013,608.587 199.44,608.16 C199.76,607.733 200.187,607.44 200.72,607.28 C201.147,607.067 201.68,606.96 202.32,606.96 C203.013,606.96 203.573,607.067 204,607.28 C204.427,607.387 204.88,607.68 205.36,608.16 C205.787,608.587 206.107,609.04 206.32,609.52 C206.533,609.947 206.64,610.48 206.64,611.12 Z M190.64,644 C189.947,644 189.413,643.84 189.04,643.52 C188.56,643.147 188.267,642.773 188.16,642.4 L185.68,635.44 L171.36,635.44 L168.96,642.4 C168.747,642.827 168.453,643.2 168.08,643.52 C167.707,643.84 167.173,644 166.48,644 L160.64,644 L174.72,607.92 L182.4,607.92 L196.4,644 L190.64,644 L190.64,644 Z M180,619.28 C179.84,618.907 179.6,618.24 179.28,617.28 L178.56,614.72 C178.4,615.36 178.16,616.213 177.84,617.28 L177.04,619.36 L173.2,630.32 L183.92,630.32 L180,619.28 L180,619.28 Z M205.84,644 L198.96,644 L198.96,618.4 L205.84,618.4 L205.84,644 Z" id="Shape" fill="#355FC5" fill-rule="nonzero" opacity="0.0314825149"></path>
        <path d="M900.48,92 C904.16,92 907.307,93.307 909.92,95.92 L938.08,124.08 C940.693,126.693 942,129.84 942,133.52 L942,203.68 C942,208.373 940.453,212.267 937.36,215.36 C934.267,218.453 930.373,220 925.68,220 L862.32,220 C857.627,220 853.733,218.453 850.64,215.36 C847.547,212.267 846,208.373 846,203.68 L846,108.32 C846,103.627 847.547,99.733 850.64,96.64 C853.733,93.547 857.627,92 862.32,92 L900.48,92 L900.48,92 Z M900.48,100 L862.32,100 C859.76,100 857.733,100.747 856.24,102.24 C854.747,103.733 854,105.76 854,108.32 L854,203.68 C854,206.24 854.747,208.267 856.24,209.76 C857.733,211.253 859.76,212 862.32,212 L925.68,212 C928.24,212 930.267,211.253 931.76,209.76 C933.253,208.267 934,206.24 934,203.68 L934,133.52 C934,132.08 933.467,130.827 932.4,129.76 L904.24,101.6 C903.173,100.533 901.92,100 900.48,100 L900.48,100 Z M916.64,155.12 C916.64,155.76 916.533,156.293 916.32,156.72 C916.075458,157.222151 915.751268,157.68142 915.36,158.08 C914.827,158.507 914.373,158.8 914,158.96 C913.36,159.173 912.8,159.28 912.32,159.28 C911.893,159.28 911.36,159.173 910.72,158.96 C910.187,158.693 909.76,158.4 909.44,158.08 C909.048732,157.68142 908.724542,157.222151 908.48,156.72 C908.267,156.293 908.16,155.76 908.16,155.12 C908.16,154.48 908.267,153.947 908.48,153.52 C908.693,153.04 909.013,152.587 909.44,152.16 C909.76,151.733 910.187,151.44 910.72,151.28 C911.147,151.067 911.68,150.96 912.32,150.96 C913.013,150.96 913.573,151.067 914,151.28 C914.427,151.387 914.88,151.68 915.36,152.16 C915.787,152.587 916.107,153.04 916.32,153.52 C916.533,153.947 916.64,154.48 916.64,155.12 Z M900.64,188 C899.947,188 899.413,187.84 899.04,187.52 C898.56,187.147 898.267,186.773 898.16,186.4 L895.68,179.44 L881.36,179.44 L878.96,186.4 C878.747,186.827 878.453,187.2 878.08,187.52 C877.707,187.84 877.173,188 876.48,188 L870.64,188 L884.72,151.92 L892.4,151.92 L906.4,188 L900.64,188 L900.64,188 Z M890,163.28 C889.84,162.907 889.6,162.24 889.28,161.28 L888.56,158.72 C888.4,159.36 888.16,160.213 887.84,161.28 L887.04,163.36 L883.2,174.32 L893.92,174.32 L890,163.28 L890,163.28 Z M915.84,188 L908.96,188 L908.96,162.4 L915.84,162.4 L915.84,188 Z" id="Shape-Copy-9" fill="#355FC5" fill-rule="nonzero" opacity="0.312593006"></path>
        <path d="M758.48,-36 C762.16,-36 765.307,-34.693 767.92,-32.08 L796.08,-3.92 C798.693,-1.307 800,1.84 800,5.52 L800,75.68 C800,80.373 798.453,84.267 795.36,87.36 C792.267,90.453 788.373,92 783.68,92 L720.32,92 C715.627,92 711.733,90.453 708.64,87.36 C705.547,84.267 704,80.373 704,75.68 L704,-19.68 C704,-24.373 705.547,-28.267 708.64,-31.36 C711.733,-34.453 715.627,-36 720.32,-36 L758.48,-36 L758.48,-36 Z M758.48,-28 L720.32,-28 C717.76,-28 715.733,-27.253 714.24,-25.76 C712.747,-24.267 712,-22.24 712,-19.68 L712,75.68 C712,78.24 712.747,80.267 714.24,81.76 C715.733,83.253 717.76,84 720.32,84 L783.68,84 C786.24,84 788.267,83.253 789.76,81.76 C791.253,80.267 792,78.24 792,75.68 L792,5.52 C792,4.08 791.467,2.827 790.4,1.76 L762.24,-26.4 C761.173,-27.467 759.92,-28 758.48,-28 L758.48,-28 Z M766.88,60.08 L760.16,60.08 L752.72,36.48 C752.72,36.427 752.68,36.267 752.6,36 C752.53642,35.7857144 752.469746,35.5723588 752.4,35.36 C752.4,35.253 752.36,35.053 752.28,34.76 C752.2,34.467 752.133,34.24 752.08,34.08 C752.027,34.24 751.96,34.467 751.88,34.76 C751.8,35.053 751.76,35.253 751.76,35.36 C751.707,35.52 751.6,35.893 751.44,36.48 L743.92,60.08 L737.2,60.08 L726.08,24 L732.32,24 C732.96,24 733.493,24.16 733.92,24.48 C734.347,24.693 734.64,25.067 734.8,25.6 L740.4,45.92 C740.453,46.24 740.587,46.853 740.8,47.76 C740.853,47.973 740.92,48.32 741,48.8 C741.08,49.28 741.147,49.627 741.2,49.84 L741.68,47.76 C741.84,47.067 742.027,46.453 742.24,45.92 L748.72,25.6 C748.88,25.227 749.173,24.853 749.6,24.48 C750.027,24.16 750.56,24 751.2,24 L753.36,24 C754,24 754.533,24.16 754.96,24.48 C755.44,24.853 755.733,25.227 755.84,25.6 L762.32,45.92 C762.533,46.347 762.72,46.933 762.88,47.68 L763.36,49.68 C763.413,49.467 763.48,49.133 763.56,48.68 C763.64,48.227 763.707,47.893 763.76,47.68 C763.813,47.253 763.947,46.667 764.16,45.92 L769.68,25.6 C769.893,25.12 770.187,24.747 770.56,24.48 C771.04,24.16 771.573,24 772.16,24 L778,24 L766.88,60.08 L766.88,60.08 Z" id="Shape" fill="#355FC5" fill-rule="nonzero" opacity="0.518880208"></path>
        <path d="M616.48,484 C620.16,484 623.307,485.307 625.92,487.92 L654.08,516.08 C656.693,518.693 658,521.84 658,525.52 L658,595.68 C658,600.373 656.453,604.267 653.36,607.36 C650.267,610.453 646.373,612 641.68,612 L578.32,612 C573.627,612 569.733,610.453 566.64,607.36 C563.547,604.267 562,600.373 562,595.68 L562,500.32 C562,495.627 563.547,491.733 566.64,488.64 C569.733,485.547 573.627,484 578.32,484 L616.48,484 L616.48,484 Z M616.48,492 L578.32,492 C575.76,492 573.733,492.747 572.24,494.24 C570.747,495.733 570,497.76 570,500.32 L570,595.68 C570,598.24 570.747,600.267 572.24,601.76 C573.733,603.253 575.76,604 578.32,604 L641.68,604 C644.24,604 646.267,603.253 647.76,601.76 C649.253,600.267 650,598.24 650,595.68 L650,525.52 C650,524.08 649.467,522.827 648.4,521.76 L620.24,493.6 C619.173,492.533 617.92,492 616.48,492 L616.48,492 Z M607.04,533.52 C610.4,533.52 612.08,535.84 612.08,540.48 C612.08,542.56 611.76,545.093 611.12,548.08 C613.307,552.24 615.893,555.893 618.88,559.04 C619.692013,558.935502 620.505423,558.84216 621.32,558.76 C622.573,558.627 623.52,558.56 624.16,558.56 C626.56,558.56 628.387,559.107 629.64,560.2 C630.893,561.293 631.52,562.613 631.52,564.16 C631.52,565.653 630.88,567.027 629.6,568.28 C628.32,569.533 626.667,570.16 624.64,570.16 C622.133,570.16 619.413,568.88 616.48,566.32 C612.693,567.067 608.107,568.48 602.72,570.56 C601.92,572.16 601.213,573.48 600.6,574.52 C599.888135,575.710833 599.12749,576.871818 598.32,578 C597.413,579.28 596.44,580.253 595.4,580.92 C594.36,581.587 593.307,581.92 592.24,581.92 C590.64,581.92 589.253,581.307 588.08,580.08 C586.907,578.853 586.32,577.493 586.32,576 C586.32,572.427 590.107,568.88 597.68,565.36 C600.4,559.813 602.533,554.24 604.08,548.64 C602.32,545.333 601.44,542.48 601.44,540.08 C601.44,538 601.92,536.387 602.88,535.24 C603.84,534.093 605.227,533.52 607.04,533.52 L607.04,533.52 Z M608,554.56 C607.68,555.627 606.587,558.72 604.72,563.84 C609.36,562.347 612.133,561.493 613.04,561.28 C611.76,559.733 610.08,557.493 608,554.56 L608,554.56 Z" id="Shape" fill="#355FC5" fill-rule="nonzero" opacity="0.518880208"></path>
        <path d="M616.48,-8 C620.16,-8 623.307,-6.693 625.92,-4.08 L654.08,24.08 C656.693,26.693 658,29.84 658,33.52 L658,103.68 C658,108.373 656.453,112.267 653.36,115.36 C650.267,118.453 646.373,120 641.68,120 L578.32,120 C573.627,120 569.733,118.453 566.64,115.36 C563.547,112.267 562,108.373 562,103.68 L562,8.32 C562,3.627 563.547,-0.267 566.64,-3.36 C569.733,-6.453 573.627,-8 578.32,-8 L616.48,-8 L616.48,-8 Z M616.48,-2.84217094e-13 L578.32,-2.84217094e-13 C575.76,-2.84217094e-13 573.733,0.747 572.24,2.24 C570.747,3.733 570,5.76 570,8.32 L570,103.68 C570,106.24 570.747,108.267 572.24,109.76 C573.733,111.253 575.76,112 578.32,112 L641.68,112 C644.24,112 646.267,111.253 647.76,109.76 C649.253,108.267 650,106.24 650,103.68 L650,33.52 C650,32.08 649.467,30.827 648.4,29.76 L620.24,1.6 C619.173,0.533 617.92,-2.84217094e-13 616.48,-2.84217094e-13 L616.48,-2.84217094e-13 Z M607.04,41.52 C610.4,41.52 612.08,43.84 612.08,48.48 C612.08,50.56 611.76,53.093 611.12,56.08 C613.307,60.24 615.893,63.893 618.88,67.04 C619.692013,66.9355019 620.505423,66.8421598 621.32,66.76 C622.573,66.627 623.52,66.56 624.16,66.56 C626.56,66.56 628.387,67.107 629.64,68.2 C630.893,69.293 631.52,70.613 631.52,72.16 C631.52,73.653 630.88,75.027 629.6,76.28 C628.32,77.533 626.667,78.16 624.64,78.16 C622.133,78.16 619.413,76.88 616.48,74.32 C612.693,75.067 608.107,76.48 602.72,78.56 C601.92,80.16 601.213,81.48 600.6,82.52 C599.888135,83.7108327 599.12749,84.871818 598.32,86 C597.413,87.28 596.44,88.253 595.4,88.92 C594.36,89.587 593.307,89.92 592.24,89.92 C590.64,89.92 589.253,89.307 588.08,88.08 C586.907,86.853 586.32,85.493 586.32,84 C586.32,80.427 590.107,76.88 597.68,73.36 C600.4,67.813 602.533,62.24 604.08,56.64 C602.32,53.333 601.44,50.48 601.44,48.08 C601.44,46 601.92,44.387 602.88,43.24 C603.84,42.093 605.227,41.52 607.04,41.52 L607.04,41.52 Z M608,62.56 C607.68,63.627 606.587,66.72 604.72,71.84 C609.36,70.347 612.133,69.493 613.04,69.28 C611.76,67.733 610.08,65.493 608,62.56 L608,62.56 Z" id="Shape-Copy-4" fill="#355FC5" fill-rule="nonzero" opacity="0.518880208"></path>
        <path d="M190.48,384 C194.16,384 197.307,385.307 199.92,387.92 L228.08,416.08 C230.693,418.693 232,421.84 232,425.52 L232,495.68 C232,500.373 230.453,504.267 227.36,507.36 C224.267,510.453 220.373,512 215.68,512 L152.32,512 C147.627,512 143.733,510.453 140.64,507.36 C137.547,504.267 136,500.373 136,495.68 L136,400.32 C136,395.627 137.547,391.733 140.64,388.64 C143.733,385.547 147.627,384 152.32,384 L190.48,384 L190.48,384 Z M190.48,392 L152.32,392 C149.76,392 147.733,392.747 146.24,394.24 C144.747,395.733 144,397.76 144,400.32 L144,495.68 C144,498.24 144.747,500.267 146.24,501.76 C147.733,503.253 149.76,504 152.32,504 L215.68,504 C218.24,504 220.267,503.253 221.76,501.76 C223.253,500.267 224,498.24 224,495.68 L224,425.52 C224,424.08 223.467,422.827 222.4,421.76 L194.24,393.6 C193.173,392.533 191.92,392 190.48,392 L190.48,392 Z M182.96,443.92 C185.36,443.92 187.493,444.213 189.36,444.8 C191.173,445.44 192.667,446.267 193.84,447.28 C195.013,448.4 195.867,449.627 196.4,450.96 C196.933,452.347 197.2,453.893 197.2,455.6 C197.2,457.253 196.907,458.88 196.32,460.48 C195.733,461.973 194.853,463.227 193.68,464.24 C192.507,465.36 191.04,466.187 189.28,466.72 C187.36,467.307 185.253,467.6 182.96,467.6 L178.24,467.6 L178.24,480 L170.8,480 L170.8,443.92 L182.96,443.92 L182.96,443.92 Z M182.96,461.92 C185.36,461.92 187.067,461.36 188.08,460.24 C189.2,459.013 189.76,457.467 189.76,455.6 C189.76,454.693 189.6,453.867 189.28,453.12 C189.013,452.373 188.613,451.76 188.08,451.28 C187.547,450.747 186.853,450.347 186,450.08 C185.093,449.76 184.08,449.6 182.96,449.6 L178.24,449.6 L178.24,461.92 L182.96,461.92 L182.96,461.92 Z" id="Shape" fill="#355FC5" fill-rule="nonzero" opacity="0.026517"></path>
        <path d="M190.48,-108 C194.16,-108 197.307,-106.693 199.92,-104.08 L228.08,-75.92 C230.693,-73.307 232,-70.16 232,-66.48 L232,3.68 C232,8.373 230.453,12.267 227.36,15.36 C224.267,18.453 220.373,20 215.68,20 L152.32,20 C147.627,20 143.733,18.453 140.64,15.36 C137.547,12.267 136,8.373 136,3.68 L136,-91.68 C136,-96.373 137.547,-100.267 140.64,-103.36 C143.733,-106.453 147.627,-108 152.32,-108 L190.48,-108 L190.48,-108 Z M190.48,-100 L152.32,-100 C149.76,-100 147.733,-99.253 146.24,-97.76 C144.747,-96.267 144,-94.24 144,-91.68 L144,3.68 C144,6.24 144.747,8.267 146.24,9.76 C147.733,11.253 149.76,12 152.32,12 L215.68,12 C218.24,12 220.267,11.253 221.76,9.76 C223.253,8.267 224,6.24 224,3.68 L224,-66.48 C224,-67.92 223.467,-69.173 222.4,-70.24 L194.24,-98.4 C193.173,-99.467 191.92,-100 190.48,-100 L190.48,-100 Z M182.96,-48.08 C185.36,-48.08 187.493,-47.787 189.36,-47.2 C191.173,-46.56 192.667,-45.733 193.84,-44.72 C195.013,-43.6 195.867,-42.373 196.4,-41.04 C196.933,-39.653 197.2,-38.107 197.2,-36.4 C197.2,-34.747 196.907,-33.12 196.32,-31.52 C195.733,-30.027 194.853,-28.773 193.68,-27.76 C192.507,-26.64 191.04,-25.813 189.28,-25.28 C187.36,-24.693 185.253,-24.4 182.96,-24.4 L178.24,-24.4 L178.24,-12 L170.8,-12 L170.8,-48.08 L182.96,-48.08 L182.96,-48.08 Z M182.96,-30.08 C185.36,-30.08 187.067,-30.64 188.08,-31.76 C189.2,-32.987 189.76,-34.533 189.76,-36.4 C189.76,-37.307 189.6,-38.133 189.28,-38.88 C189.013,-39.627 188.613,-40.24 188.08,-40.72 C187.547,-41.253 186.853,-41.653 186,-41.92 C185.093,-42.24 184.08,-42.4 182.96,-42.4 L178.24,-42.4 L178.24,-30.08 L182.96,-30.08 L182.96,-30.08 Z" id="Shape-Copy-28" fill="#355FC5" fill-rule="nonzero" opacity="0.076517"></path>
        <path d="M900.48,420 C904.16,420 907.307,421.307 909.92,423.92 L938.08,452.08 C940.693,454.693 942,457.84 942,461.52 L942,531.68 C942,536.373 940.453,540.267 937.36,543.36 C934.267,546.453 930.373,548 925.68,548 L862.32,548 C857.627,548 853.733,546.453 850.64,543.36 C847.547,540.267 846,536.373 846,531.68 L846,436.32 C846,431.627 847.547,427.733 850.64,424.64 C853.733,421.547 857.627,420 862.32,420 L900.48,420 L900.48,420 Z M900.48,428 L862.32,428 C859.76,428 857.733,428.747 856.24,430.24 C854.747,431.733 854,433.76 854,436.32 L854,531.68 C854,534.24 854.747,536.267 856.24,537.76 C857.733,539.253 859.76,540 862.32,540 L925.68,540 C928.24,540 930.267,539.253 931.76,537.76 C933.253,536.267 934,534.24 934,531.68 L934,461.52 C934,460.08 933.467,458.827 932.4,457.76 L904.24,429.6 C903.173,428.533 901.92,428 900.48,428 L900.48,428 Z M892.96,479.92 C895.36,479.92 897.493,480.213 899.36,480.8 C901.173,481.44 902.667,482.267 903.84,483.28 C905.013,484.4 905.867,485.627 906.4,486.96 C906.933,488.347 907.2,489.893 907.2,491.6 C907.2,493.253 906.907,494.88 906.32,496.48 C905.733,497.973 904.853,499.227 903.68,500.24 C902.507,501.36 901.04,502.187 899.28,502.72 C897.36,503.307 895.253,503.6 892.96,503.6 L888.24,503.6 L888.24,516 L880.8,516 L880.8,479.92 L892.96,479.92 L892.96,479.92 Z M892.96,497.92 C895.36,497.92 897.067,497.36 898.08,496.24 C899.2,495.013 899.76,493.467 899.76,491.6 C899.76,490.693 899.6,489.867 899.28,489.12 C899.013,488.373 898.613,487.76 898.08,487.28 C897.547,486.747 896.853,486.347 896,486.08 C895.093,485.76 894.08,485.6 892.96,485.6 L888.24,485.6 L888.24,497.92 L892.96,497.92 L892.96,497.92 Z" id="Shape-Copy-11" fill="#355FC5" fill-rule="nonzero" opacity="0.136486235"></path>
        <path d="M616.48,156 C620.16,156 623.307,157.307 625.92,159.92 L654.08,188.08 C656.693,190.693 658,193.84 658,197.52 L658,267.68 C658,272.373 656.453,276.267 653.36,279.36 C650.267,282.453 646.373,284 641.68,284 L578.32,284 C573.627,284 569.733,282.453 566.64,279.36 C563.547,276.267 562,272.373 562,267.68 L562,172.32 C562,167.627 563.547,163.733 566.64,160.64 C569.733,157.547 573.627,156 578.32,156 L616.48,156 L616.48,156 Z M616.48,164 L578.32,164 C575.76,164 573.733,164.747 572.24,166.24 C570.747,167.733 570,169.76 570,172.32 L570,267.68 C570,270.24 570.747,272.267 572.24,273.76 C573.733,275.253 575.76,276 578.32,276 L641.68,276 C644.24,276 646.267,275.253 647.76,273.76 C649.253,272.267 650,270.24 650,267.68 L650,197.52 C650,196.08 649.467,194.827 648.4,193.76 L620.24,165.6 C619.173,164.533 617.92,164 616.48,164 L616.48,164 Z M608.96,215.92 C611.36,215.92 613.493,216.213 615.36,216.8 C617.173,217.44 618.667,218.267 619.84,219.28 C621.013,220.4 621.867,221.627 622.4,222.96 C622.933,224.347 623.2,225.893 623.2,227.6 C623.2,229.253 622.907,230.88 622.32,232.48 C621.733,233.973 620.853,235.227 619.68,236.24 C618.507,237.36 617.04,238.187 615.28,238.72 C613.36,239.307 611.253,239.6 608.96,239.6 L604.24,239.6 L604.24,252 L596.8,252 L596.8,215.92 L608.96,215.92 L608.96,215.92 Z M608.96,233.92 C611.36,233.92 613.067,233.36 614.08,232.24 C615.2,231.013 615.76,229.467 615.76,227.6 C615.76,226.693 615.6,225.867 615.28,225.12 C615.013,224.373 614.613,223.76 614.08,223.28 C613.547,222.747 612.853,222.347 612,222.08 C611.093,221.76 610.08,221.6 608.96,221.6 L604.24,221.6 L604.24,233.92 L608.96,233.92 L608.96,233.92 Z" id="Shape-Copy-3" fill="#355FC5" fill-rule="nonzero" opacity="0.349423363"></path>
        <path d="M616.48,320 C620.16,320 623.307,321.307 625.92,323.92 L654.08,352.08 C656.693,354.693 658,357.84 658,361.52 L658,431.68 C658,436.373 656.453,440.267 653.36,443.36 C650.267,446.453 646.373,448 641.68,448 L578.32,448 C573.627,448 569.733,446.453 566.64,443.36 C563.547,440.267 562,436.373 562,431.68 L562,336.32 C562,331.627 563.547,327.733 566.64,324.64 C569.733,321.547 573.627,320 578.32,320 L616.48,320 L616.48,320 Z M616.48,328 L578.32,328 C575.76,328 573.733,328.747 572.24,330.24 C570.747,331.733 570,333.76 570,336.32 L570,431.68 C570,434.24 570.747,436.267 572.24,437.76 C573.733,439.253 575.76,440 578.32,440 L641.68,440 C644.24,440 646.267,439.253 647.76,437.76 C649.253,436.267 650,434.24 650,431.68 L650,361.52 C650,360.08 649.467,358.827 648.4,357.76 L620.24,329.6 C619.173,328.533 617.92,328 616.48,328 L616.48,328 Z M622,380 L634,394 L610,422 L586,394 L598,380 L622,380 Z" id="Shape" fill="#355FC5" fill-rule="nonzero" opacity="0.518880208"></path>
        <path d="M512.08,652.08 C514.693,654.693 516,657.84 516,661.52 L516,731.68 C516,736.373 514.453,740.267 511.36,743.36 C508.267,746.453 504.373,748 499.68,748 L436.32,748 C431.627,748 427.733,746.453 424.64,743.36 C421.547,740.267 420,736.373 420,731.68 L420,636.32 C420,631.627 421.547,627.733 424.64,624.64 C427.733,621.547 431.627,620 436.32,620 L474.48,620 C478.16,620 481.307,621.307 483.92,623.92 L512.08,652.08 Z M508,731.68 L508,661.52 C508,660.08 507.467,658.827 506.4,657.76 L478.24,629.6 C477.173,628.533 475.92,628 474.48,628 L436.32,628 C433.76,628 431.733,628.747 430.24,630.24 C428.747,631.733 428,633.76 428,636.32 L428,731.68 C428,734.24 428.747,736.267 430.24,737.76 C431.733,739.253 433.76,740 436.32,740 L499.68,740 C502.24,740 504.267,739.253 505.76,737.76 C507.253,736.267 508,734.24 508,731.68 L508,731.68 Z M464.08,668 C462.907,668 461.933,667.627 461.16,666.88 C460.387,666.133 460,665.173 460,664 C460,662.827 460.387,661.867 461.16,661.12 C461.933,660.373 462.907,660 464.08,660 L471.92,660 C473.093,660 474.067,660.373 474.84,661.12 C475.613,661.867 476,662.827 476,664 C476,665.173 475.613,666.133 474.84,666.88 C474.067,667.627 473.093,668 471.92,668 L464.08,668 Z M486.24,672 C489.067,672 491.4,672.92 493.24,674.76 C495.08,676.6 496,678.933 496,681.76 L496,706.24 C496,709.067 495.08,711.4 493.24,713.24 C491.4,715.08 489.067,716 486.24,716 L481.36,716 L483.76,722.56 C483.92,723.04 484,723.547 484,724.08 C484,725.84 483.12,727.067 481.36,727.76 C480.88,727.92 480.4,728 479.92,728 C478.107,728 476.88,727.093 476.24,725.28 L472.8,716 L463.2,716 L459.76,725.28 C459.12,727.093 457.893,728 456.08,728 C455.6,728 455.12,727.92 454.64,727.76 C452.88,727.067 452,725.84 452,724.08 C452,723.547 452.08,723.04 452.24,722.56 L454.64,716 L449.76,716 C446.933,716 444.6,715.08 442.76,713.24 C440.92,711.4 440,709.067 440,706.24 L440,681.76 C440,678.933 440.92,676.6 442.76,674.76 C444.6,672.92 446.933,672 449.76,672 L486.24,672 Z M488,708 L488,680 L448,680 L448,708 L488,708 Z" id="Shape" fill="#355FC5" fill-rule="nonzero" opacity="0.404738653"></path>
        <path d="M938.08,616.08 C940.693,618.693 942,621.84 942,625.52 L942,695.68 C942,700.373 940.453,704.267 937.36,707.36 C934.267,710.453 930.373,712 925.68,712 L862.32,712 C857.627,712 853.733,710.453 850.64,707.36 C847.547,704.267 846,700.373 846,695.68 L846,600.32 C846,595.627 847.547,591.733 850.64,588.64 C853.733,585.547 857.627,584 862.32,584 L900.48,584 C904.16,584 907.307,585.307 909.92,587.92 L938.08,616.08 Z M934,695.68 L934,625.52 C934,624.08 933.467,622.827 932.4,621.76 L904.24,593.6 C903.173,592.533 901.92,592 900.48,592 L862.32,592 C859.76,592 857.733,592.747 856.24,594.24 C854.747,595.733 854,597.76 854,600.32 L854,695.68 C854,698.24 854.747,700.267 856.24,701.76 C857.733,703.253 859.76,704 862.32,704 L925.68,704 C928.24,704 930.267,703.253 931.76,701.76 C933.253,700.267 934,698.24 934,695.68 L934,695.68 Z M890.08,632 C888.907,632 887.933,631.627 887.16,630.88 C886.387,630.133 886,629.173 886,628 C886,626.827 886.387,625.867 887.16,625.12 C887.933,624.373 888.907,624 890.08,624 L897.92,624 C899.093,624 900.067,624.373 900.84,625.12 C901.613,625.867 902,626.827 902,628 C902,629.173 901.613,630.133 900.84,630.88 C900.067,631.627 899.093,632 897.92,632 L890.08,632 Z M912.24,636 C915.067,636 917.4,636.92 919.24,638.76 C921.08,640.6 922,642.933 922,645.76 L922,670.24 C922,673.067 921.08,675.4 919.24,677.24 C917.4,679.08 915.067,680 912.24,680 L907.36,680 L909.76,686.56 C909.92,687.04 910,687.547 910,688.08 C910,689.84 909.12,691.067 907.36,691.76 C906.88,691.92 906.4,692 905.92,692 C904.107,692 902.88,691.093 902.24,689.28 L898.8,680 L889.2,680 L885.76,689.28 C885.12,691.093 883.893,692 882.08,692 C881.6,692 881.12,691.92 880.64,691.76 C878.88,691.067 878,689.84 878,688.08 C878,687.547 878.08,687.04 878.24,686.56 L880.64,680 L875.76,680 C872.933,680 870.6,679.08 868.76,677.24 C866.92,675.4 866,673.067 866,670.24 L866,645.76 C866,642.933 866.92,640.6 868.76,638.76 C870.6,636.92 872.933,636 875.76,636 L912.24,636 Z M914,672 L914,644 L874,644 L874,672 L914,672 Z" id="Shape-Copy-13" fill="#355FC5" fill-rule="nonzero" opacity="0.518880208"></path>
        <path d="M512.08,160.08 C514.693,162.693 516,165.84 516,169.52 L516,239.68 C516,244.373 514.453,248.267 511.36,251.36 C508.267,254.453 504.373,256 499.68,256 L436.32,256 C431.627,256 427.733,254.453 424.64,251.36 C421.547,248.267 420,244.373 420,239.68 L420,144.32 C420,139.627 421.547,135.733 424.64,132.64 C427.733,129.547 431.627,128 436.32,128 L474.48,128 C478.16,128 481.307,129.307 483.92,131.92 L512.08,160.08 Z M508,239.68 L508,169.52 C508,168.08 507.467,166.827 506.4,165.76 L478.24,137.6 C477.173,136.533 475.92,136 474.48,136 L436.32,136 C433.76,136 431.733,136.747 430.24,138.24 C428.747,139.733 428,141.76 428,144.32 L428,239.68 C428,242.24 428.747,244.267 430.24,245.76 C431.733,247.253 433.76,248 436.32,248 L499.68,248 C502.24,248 504.267,247.253 505.76,245.76 C507.253,244.267 508,242.24 508,239.68 L508,239.68 Z M464.08,176 C462.907,176 461.933,175.627 461.16,174.88 C460.387,174.133 460,173.173 460,172 C460,170.827 460.387,169.867 461.16,169.12 C461.933,168.373 462.907,168 464.08,168 L471.92,168 C473.093,168 474.067,168.373 474.84,169.12 C475.613,169.867 476,170.827 476,172 C476,173.173 475.613,174.133 474.84,174.88 C474.067,175.627 473.093,176 471.92,176 L464.08,176 Z M486.24,180 C489.067,180 491.4,180.92 493.24,182.76 C495.08,184.6 496,186.933 496,189.76 L496,214.24 C496,217.067 495.08,219.4 493.24,221.24 C491.4,223.08 489.067,224 486.24,224 L481.36,224 L483.76,230.56 C483.92,231.04 484,231.547 484,232.08 C484,233.84 483.12,235.067 481.36,235.76 C480.88,235.92 480.4,236 479.92,236 C478.107,236 476.88,235.093 476.24,233.28 L472.8,224 L463.2,224 L459.76,233.28 C459.12,235.093 457.893,236 456.08,236 C455.6,236 455.12,235.92 454.64,235.76 C452.88,235.067 452,233.84 452,232.08 C452,231.547 452.08,231.04 452.24,230.56 L454.64,224 L449.76,224 C446.933,224 444.6,223.08 442.76,221.24 C440.92,219.4 440,217.067 440,214.24 L440,189.76 C440,186.933 440.92,184.6 442.76,182.76 C444.6,180.92 446.933,180 449.76,180 L486.24,180 Z M488,216 L488,188 L448,188 L448,216 L488,216 Z" id="Shape-Copy-6" fill="#355FC5" fill-rule="nonzero" opacity="0.14562407"></path>
        <path d="M512.08,488.08 C514.693,490.693 516,493.84 516,497.52 L516,567.68 C516,572.373 514.453,576.267 511.36,579.36 C508.267,582.453 504.373,584 499.68,584 L436.32,584 C431.627,584 427.733,582.453 424.64,579.36 C421.547,576.267 420,572.373 420,567.68 L420,472.32 C420,467.627 421.547,463.733 424.64,460.64 C427.733,457.547 431.627,456 436.32,456 L474.48,456 C478.16,456 481.307,457.307 483.92,459.92 L512.08,488.08 L512.08,488.08 Z M436.32,464 C433.76,464 431.733,464.747 430.24,466.24 C428.747,467.733 428,469.76 428,472.32 L428,516 L508,516 L508,497.52 C508,496.08 507.467,494.827 506.4,493.76 L478.24,465.6 C477.173,464.533 475.92,464 474.48,464 L436.32,464 L436.32,464 Z M428,536 L456,536 L456,524 L428,524 L428,536 Z M464,536 L508,536 L508,524 L464,524 L464,536 Z M456,544 L428,544 L428,556 L456,556 L456,544 Z M464,544 L464,556 L508,556 L508,544 L464,544 Z M436.32,576 L456,576 L456,564 L428,564 L428,567.68 C428,570.24 428.747,572.267 430.24,573.76 C431.733,575.253 433.76,576 436.32,576 L436.32,576 Z M499.68,576 C502.24,576 504.267,575.253 505.76,573.76 C507.253,572.267 508,570.24 508,567.68 L508,564 L464,564 L464,576 L499.68,576 Z" id="Shape" fill="#355FC5" fill-rule="nonzero" opacity="0.424990699"></path>
        <path d="M228.08,88.08 C230.693,90.693 232,93.84 232,97.52 L232,167.68 C232,172.373 230.453,176.267 227.36,179.36 C224.267,182.453 220.373,184 215.68,184 L152.32,184 C147.627,184 143.733,182.453 140.64,179.36 C137.547,176.267 136,172.373 136,167.68 L136,72.32 C136,67.627 137.547,63.733 140.64,60.64 C143.733,57.547 147.627,56 152.32,56 L190.48,56 C194.16,56 197.307,57.307 199.92,59.92 L228.08,88.08 L228.08,88.08 Z M152.32,64 C149.76,64 147.733,64.747 146.24,66.24 C144.747,67.733 144,69.76 144,72.32 L144,116 L224,116 L224,97.52 C224,96.08 223.467,94.827 222.4,93.76 L194.24,65.6 C193.173,64.533 191.92,64 190.48,64 L152.32,64 L152.32,64 Z M144,136 L172,136 L172,124 L144,124 L144,136 Z M180,136 L224,136 L224,124 L180,124 L180,136 Z M172,144 L144,144 L144,156 L172,156 L172,144 Z M180,144 L180,156 L224,156 L224,144 L180,144 Z M152.32,176 L172,176 L172,164 L144,164 L144,167.68 C144,170.24 144.747,172.267 146.24,173.76 C147.733,175.253 149.76,176 152.32,176 L152.32,176 Z M215.68,176 C218.24,176 220.267,175.253 221.76,173.76 C223.253,172.267 224,170.24 224,167.68 L224,164 L180,164 L180,176 L215.68,176 Z" id="Shape-Copy-23" fill="#355FC5" fill-rule="nonzero" opacity="0.036202567"></path>
        <path d="M938.08,-39.92 C940.693,-37.307 942,-34.16 942,-30.48 L942,39.68 C942,44.373 940.453,48.267 937.36,51.36 C934.267,54.453 930.373,56 925.68,56 L862.32,56 C857.627,56 853.733,54.453 850.64,51.36 C847.547,48.267 846,44.373 846,39.68 L846,-55.68 C846,-60.373 847.547,-64.267 850.64,-67.36 C853.733,-70.453 857.627,-72 862.32,-72 L900.48,-72 C904.16,-72 907.307,-70.693 909.92,-68.08 L938.08,-39.92 L938.08,-39.92 Z M862.32,-64 C859.76,-64 857.733,-63.253 856.24,-61.76 C854.747,-60.267 854,-58.24 854,-55.68 L854,-12 L934,-12 L934,-30.48 C934,-31.92 933.467,-33.173 932.4,-34.24 L904.24,-62.4 C903.173,-63.467 901.92,-64 900.48,-64 L862.32,-64 L862.32,-64 Z M854,8 L882,8 L882,-4 L854,-4 L854,8 Z M890,8 L934,8 L934,-4 L890,-4 L890,8 Z M882,16 L854,16 L854,28 L882,28 L882,16 Z M890,16 L890,28 L934,28 L934,16 L890,16 Z M862.32,48 L882,48 L882,36 L854,36 L854,39.68 C854,42.24 854.747,44.267 856.24,45.76 C857.733,47.253 859.76,48 862.32,48 L862.32,48 Z M925.68,48 C928.24,48 930.267,47.253 931.76,45.76 C933.253,44.267 934,42.24 934,39.68 L934,36 L890,36 L890,48 L925.68,48 Z" id="Shape-Copy-12" fill="#355FC5" fill-rule="nonzero" opacity="0.272553943"></path>
        <path d="M332.48,420 C336.16,420 339.307,421.307 341.92,423.92 L370.08,452.08 C372.693,454.693 374,457.84 374,461.52 L374,531.68 C374,536.373 372.453,540.267 369.36,543.36 C366.267,546.453 362.373,548 357.68,548 L294.32,548 C289.627,548 285.733,546.453 282.64,543.36 C279.547,540.267 278,536.373 278,531.68 L278,436.32 C278,431.627 279.547,427.733 282.64,424.64 C285.733,421.547 289.627,420 294.32,420 L332.48,420 L332.48,420 Z M332.48,428 L294.32,428 C291.76,428 289.733,428.747 288.24,430.24 C286.747,431.733 286,433.76 286,436.32 L286,531.68 C286,534.24 286.747,536.267 288.24,537.76 C289.733,539.253 291.76,540 294.32,540 L357.68,540 C360.24,540 362.267,539.253 363.76,537.76 C365.253,536.267 366,534.24 366,531.68 L366,461.52 C366,460.08 365.467,458.827 364.4,457.76 L336.24,429.6 C335.173,428.533 333.92,428 332.48,428 L332.48,428 Z M343.52,516 L339.28,516 C338.427,516 337.867,515.6 337.6,514.8 L337.04,512.56 C336.507,513.2 335.973,513.707 335.44,514.08 C334.907,514.507 334.293,514.907 333.6,515.28 C332.96,515.653 332.24,515.92 331.44,516.08 C330.373,516.293 329.547,516.400107 328.96,516.400107 C327.654882,516.406624 326.366626,516.105117 325.2,515.52 C323.973,514.88 322.987,514.027 322.24,512.96 C321.387,511.893 320.72,510.533 320.24,508.88 C319.76,507.227 319.52,505.36 319.52,503.28 C319.52,501.52 319.787,499.76 320.32,498 C320.907,496.24 321.653,494.8 322.56,493.68 C323.531823,492.550336 324.696582,491.602277 326,490.88 C327.387,490.24 328.907,489.92 330.56,489.92 C332,489.92 333.173,490.107 334.08,490.48 C335.093,491.013 335.947,491.573 336.64,492.16 L336.64,478.96 L343.52,478.96 L343.52,516 L343.52,516 Z M307.44,516 L307.44,479.92 L314.96,479.92 L314.96,516 L307.44,516 Z M336.64,497.04 C335.947,496.24 335.253,495.707 334.56,495.44 C333.76,495.173 332.96,495.04 332.16,495.04 C331.307,495.04 330.56,495.2 329.92,495.52 C329.227,495.84 328.64,496.32 328.16,496.96 C327.635807,497.739066 327.256403,498.606276 327.04,499.52 C326.766733,500.754473 326.632564,502.015665 326.64,503.28 C326.64,504.827 326.747,506.027 326.96,506.88 C327.173,507.947 327.493,508.747 327.92,509.28 C328.347,509.973 328.827,510.427 329.36,510.64 C330,510.907 330.64,511.04 331.28,511.04 C332.507,511.04 333.52,510.8 334.32,510.32 C335.12,509.893 335.893,509.227 336.64,508.32 L336.64,497.04 L336.64,497.04 Z" id="Shape" fill="#355FC5" fill-rule="nonzero" opacity="0.0767531622"></path>
        <path d="M900.48,256 C904.16,256 907.307,257.307 909.92,259.92 L938.08,288.08 C940.693,290.693 942,293.84 942,297.52 L942,367.68 C942,372.373 940.453,376.267 937.36,379.36 C934.267,382.453 930.373,384 925.68,384 L862.32,384 C857.627,384 853.733,382.453 850.64,379.36 C847.547,376.267 846,372.373 846,367.68 L846,272.32 C846,267.627 847.547,263.733 850.64,260.64 C853.733,257.547 857.627,256 862.32,256 L900.48,256 L900.48,256 Z M900.48,264 L862.32,264 C859.76,264 857.733,264.747 856.24,266.24 C854.747,267.733 854,269.76 854,272.32 L854,367.68 C854,370.24 854.747,372.267 856.24,373.76 C857.733,375.253 859.76,376 862.32,376 L925.68,376 C928.24,376 930.267,375.253 931.76,373.76 C933.253,372.267 934,370.24 934,367.68 L934,297.52 C934,296.08 933.467,294.827 932.4,293.76 L904.24,265.6 C903.173,264.533 901.92,264 900.48,264 L900.48,264 Z M911.52,352 L907.28,352 C906.427,352 905.867,351.6 905.6,350.8 L905.04,348.56 C904.507,349.2 903.973,349.707 903.44,350.08 C902.907,350.507 902.293,350.907 901.6,351.28 C900.96,351.653 900.24,351.92 899.44,352.08 C898.373,352.293 897.547,352.400107 896.96,352.400107 C895.654882,352.406624 894.366626,352.105117 893.2,351.52 C891.973,350.88 890.987,350.027 890.24,348.96 C889.387,347.893 888.72,346.533 888.24,344.88 C887.76,343.227 887.52,341.36 887.52,339.28 C887.52,337.52 887.787,335.76 888.32,334 C888.907,332.24 889.653,330.8 890.56,329.68 C891.531823,328.550336 892.696582,327.602277 894,326.88 C895.387,326.24 896.907,325.92 898.56,325.92 C900,325.92 901.173,326.107 902.08,326.48 C903.093,327.013 903.947,327.573 904.64,328.16 L904.64,314.96 L911.52,314.96 L911.52,352 L911.52,352 Z M875.44,352 L875.44,315.92 L882.96,315.92 L882.96,352 L875.44,352 Z M904.64,333.04 C903.947,332.24 903.253,331.707 902.56,331.44 C901.76,331.173 900.96,331.04 900.16,331.04 C899.307,331.04 898.56,331.2 897.92,331.52 C897.227,331.84 896.64,332.32 896.16,332.96 C895.635807,333.739066 895.256403,334.606276 895.04,335.52 C894.766733,336.754473 894.632564,338.015665 894.64,339.28 C894.64,340.827 894.747,342.027 894.96,342.88 C895.173,343.947 895.493,344.747 895.92,345.28 C896.347,345.973 896.827,346.427 897.36,346.64 C898,346.907 898.64,347.04 899.28,347.04 C900.507,347.04 901.52,346.8 902.32,346.32 C903.12,345.893 903.893,345.227 904.64,344.32 L904.64,333.04 L904.64,333.04 Z" id="Shape-Copy-10" fill="#355FC5" fill-rule="nonzero" opacity="0.588657924"></path>
        <path d="M474.48,-36 C478.16,-36 481.307,-34.693 483.92,-32.08 L512.08,-3.92 C514.693,-1.307 516,1.84 516,5.52 L516,75.68 C516,80.373 514.453,84.267 511.36,87.36 C508.267,90.453 504.373,92 499.68,92 L436.32,92 C431.627,92 427.733,90.453 424.64,87.36 C421.547,84.267 420,80.373 420,75.68 L420,-19.68 C420,-24.373 421.547,-28.267 424.64,-31.36 C427.733,-34.453 431.627,-36 436.32,-36 L474.48,-36 L474.48,-36 Z M474.48,-28 L436.32,-28 C433.76,-28 431.733,-27.253 430.24,-25.76 C428.747,-24.267 428,-22.24 428,-19.68 L428,75.68 C428,78.24 428.747,80.267 430.24,81.76 C431.733,83.253 433.76,84 436.32,84 L499.68,84 C502.24,84 504.267,83.253 505.76,81.76 C507.253,80.267 508,78.24 508,75.68 L508,5.52 C508,4.08 507.467,2.827 506.4,1.76 L478.24,-26.4 C477.173,-27.467 475.92,-28 474.48,-28 L474.48,-28 Z M485.52,60 L481.28,60 C480.427,60 479.867,59.6 479.6,58.8 L479.04,56.56 C478.507,57.2 477.973,57.707 477.44,58.08 C476.907,58.507 476.293,58.907 475.6,59.28 C474.96,59.653 474.24,59.92 473.44,60.08 C472.373,60.293 471.547,60.4001068 470.96,60.4001068 C469.654882,60.4066239 468.366626,60.1051171 467.2,59.52 C465.973,58.88 464.987,58.027 464.24,56.96 C463.387,55.893 462.72,54.533 462.24,52.88 C461.76,51.227 461.52,49.36 461.52,47.28 C461.52,45.52 461.787,43.76 462.32,42 C462.907,40.24 463.653,38.8 464.56,37.68 C465.531823,36.550336 466.696582,35.6022766 468,34.88 C469.387,34.24 470.907,33.92 472.56,33.92 C474,33.92 475.173,34.107 476.08,34.48 C477.093,35.013 477.947,35.573 478.64,36.16 L478.64,22.96 L485.52,22.96 L485.52,60 L485.52,60 Z M449.44,60 L449.44,23.92 L456.96,23.92 L456.96,60 L449.44,60 Z M478.64,41.04 C477.947,40.24 477.253,39.707 476.56,39.44 C475.76,39.173 474.96,39.04 474.16,39.04 C473.307,39.04 472.56,39.2 471.92,39.52 C471.227,39.84 470.64,40.32 470.16,40.96 C469.635807,41.7390657 469.256403,42.6062762 469.04,43.52 C468.766733,44.7544731 468.632564,46.0156649 468.64,47.28 C468.64,48.827 468.747,50.027 468.96,50.88 C469.173,51.947 469.493,52.747 469.92,53.28 C470.347,53.973 470.827,54.427 471.36,54.64 C472,54.907 472.64,55.04 473.28,55.04 C474.507,55.04 475.52,54.8 476.32,54.32 C477.12,53.893 477.893,53.227 478.64,52.32 L478.64,41.04 L478.64,41.04 Z" id="Shape-Copy-26" fill="#355FC5" fill-rule="nonzero" opacity="0.293712798"></path>
        <path d="M796.08,652.08 C798.693,654.693 800,657.84 800,661.52 L800,731.68 C800,736.373 798.453,740.267 795.36,743.36 C792.267,746.453 788.373,748 783.68,748 L720.32,748 C715.627,748 711.733,746.453 708.64,743.36 C705.547,740.267 704,736.373 704,731.68 L704,636.32 C704,631.627 705.547,627.733 708.64,624.64 C711.733,621.547 715.627,620 720.32,620 L758.48,620 C762.16,620 765.307,621.307 767.92,623.92 L796.08,652.08 L796.08,652.08 Z M792,731.68 L792,661.52 C792,660.08 791.467,658.827 790.4,657.76 L762.24,629.6 C761.173,628.533 759.92,628 758.48,628 L720.32,628 C717.76,628 715.733,628.747 714.24,630.24 C712.747,631.733 712,633.76 712,636.32 L712,731.68 C712,734.24 712.747,736.267 714.24,737.76 C715.733,739.253 717.76,740 720.32,740 L783.68,740 C786.24,740 788.267,739.253 789.76,737.76 C791.253,736.267 792,734.24 792,731.68 Z M770.88,677.12 C771.627,677.867 772,678.827 772,680 L772,688 C772,689.173 771.627,690.147 770.88,690.92 C770.133,691.693 769.173,692.08 768,692.08 C766.827,692.08 765.867,691.693 765.12,690.92 C764.373,690.147 764,689.173 764,688 L764,684 L756,684 L756,708 L759.92,708 C761.093,708 762.067,708.373 762.84,709.12 C763.613,709.867 764,710.827 764,712 C764,713.173 763.613,714.133 762.84,714.88 C762.067,715.627 761.093,716 759.92,716 L744.08,716 C742.907,716 741.933,715.627 741.16,714.88 C740.387,714.133 740,713.173 740,712 C740,710.827 740.387,709.867 741.16,709.12 C741.933,708.373 742.907,708 744.08,708 L748,708 L748,684 L740,684 L740,687.92 C740,689.093 739.627,690.067 738.88,690.84 C738.133,691.613 737.173,692 736,692 C734.827,692 733.867,691.613 733.12,690.84 C732.373,690.067 732,689.093 732,687.92 L732,680 C732,678.827 732.373,677.867 733.12,677.12 C733.867,676.373 734.827,676 736,676 L768,676 C769.173,676 770.133,676.373 770.88,677.12 Z" id="Shape-Copy-8" fill="#355FC5" fill-rule="nonzero" opacity="0.147925967"></path>
        <path d="M512.08,324.08 C514.693,326.693 516,329.84 516,333.52 L516,403.68 C516,408.373 514.453,412.267 511.36,415.36 C508.267,418.453 504.373,420 499.68,420 L436.32,420 C431.627,420 427.733,418.453 424.64,415.36 C421.547,412.267 420,408.373 420,403.68 L420,308.32 C420,303.627 421.547,299.733 424.64,296.64 C427.733,293.547 431.627,292 436.32,292 L474.48,292 C478.16,292 481.307,293.307 483.92,295.92 L512.08,324.08 L512.08,324.08 Z M508,403.68 L508,333.52 C508,332.08 507.467,330.827 506.4,329.76 L478.24,301.6 C477.173,300.533 475.92,300 474.48,300 L436.32,300 C433.76,300 431.733,300.747 430.24,302.24 C428.747,303.733 428,305.76 428,308.32 L428,403.68 C428,406.24 428.747,408.267 430.24,409.76 C431.733,411.253 433.76,412 436.32,412 L499.68,412 C502.24,412 504.267,411.253 505.76,409.76 C507.253,408.267 508,406.24 508,403.68 Z M486.88,349.12 C487.627,349.867 488,350.827 488,352 L488,360 C488,361.173 487.627,362.147 486.88,362.92 C486.133,363.693 485.173,364.08 484,364.08 C482.827,364.08 481.867,363.693 481.12,362.92 C480.373,362.147 480,361.173 480,360 L480,356 L472,356 L472,380 L475.92,380 C477.093,380 478.067,380.373 478.84,381.12 C479.613,381.867 480,382.827 480,384 C480,385.173 479.613,386.133 478.84,386.88 C478.067,387.627 477.093,388 475.92,388 L460.08,388 C458.907,388 457.933,387.627 457.16,386.88 C456.387,386.133 456,385.173 456,384 C456,382.827 456.387,381.867 457.16,381.12 C457.933,380.373 458.907,380 460.08,380 L464,380 L464,356 L456,356 L456,359.92 C456,361.093 455.627,362.067 454.88,362.84 C454.133,363.613 453.173,364 452,364 C450.827,364 449.867,363.613 449.12,362.84 C448.373,362.067 448,361.093 448,359.92 L448,352 C448,350.827 448.373,349.867 449.12,349.12 C449.867,348.373 450.827,348 452,348 L484,348 C485.173,348 486.133,348.373 486.88,349.12 Z" id="Shape-Copy" fill="#355FC5" fill-rule="nonzero" opacity="0.192592076"></path>
        <path d="M796.08,324.08 C798.693,326.693 800,329.84 800,333.52 L800,403.68 C800,408.373 798.453,412.267 795.36,415.36 C792.267,418.453 788.373,420 783.68,420 L720.32,420 C715.627,420 711.733,418.453 708.64,415.36 C705.547,412.267 704,408.373 704,403.68 L704,308.32 C704,303.627 705.547,299.733 708.64,296.64 C711.733,293.547 715.627,292 720.32,292 L758.48,292 C762.16,292 765.307,293.307 767.92,295.92 L796.08,324.08 Z M720.32,300 C717.76,300 715.733,300.747 714.24,302.24 C712.747,303.733 712,305.76 712,308.32 L712,371.84 L716.96,368.8 C718.72,367.733 720.16,367.2 721.28,367.2 C722.827,367.2 724.267,367.733 725.6,368.8 L746.48,385.68 L774.16,362.4 C775.44,361.333 776.88,360.8 778.48,360.8 C780.027,360.8 781.467,361.333 782.8,362.4 L792,369.76 L792,333.52 C792,332.08 791.467,330.827 790.4,329.76 L762.24,301.6 C761.173,300.533 759.92,300 758.48,300 L720.32,300 Z M744,356 C739.627,356 735.867,354.427 732.72,351.28 C729.573,348.133 728,344.373 728,340 C728,335.627 729.573,331.867 732.72,328.72 C735.867,325.573 739.627,324 744,324 C748.373,324 752.133,325.573 755.28,328.72 C758.427,331.867 760,335.627 760,340 C760,344.373 758.427,348.133 755.28,351.28 C752.133,354.427 748.373,356 744,356 Z M744,332 C741.813,332 739.933,332.787 738.36,334.36 C736.787,335.933 736,337.813 736,340 C736,342.187 736.787,344.067 738.36,345.64 C739.933,347.213 741.813,348 744,348 C746.187,348 748.067,347.213 749.64,345.64 C751.213,344.067 752,342.187 752,340 C752,337.813 751.213,335.933 749.64,334.36 C748.067,332.787 746.187,332 744,332 Z M783.68,412 C786.24,412 788.267,411.253 789.76,409.76 C791.253,408.267 792,406.24 792,403.68 L792,380.08 L778.48,369.2 L750.8,392.56 C749.573,393.573 748.133,394.08 746.48,394.08 C744.827,394.08 743.387,393.573 742.16,392.56 L721.28,375.6 L712,381.52 L712,403.68 C712,406.24 712.747,408.267 714.24,409.76 C715.733,411.253 717.76,412 720.32,412 L783.68,412 L783.68,412 Z" id="Shape" fill="#355FC5" fill-rule="nonzero" opacity="0.518880208"></path>
        <path d="M758.48,128 C762.16,128 765.307,129.307 767.92,131.92 L796.08,160.08 C798.693,162.693 800,165.84 800,169.52 L800,239.68 C800,244.373 798.453,248.267 795.36,251.36 C792.267,254.453 788.373,256 783.68,256 L720.32,256 C715.627,256 711.733,254.453 708.64,251.36 C705.547,248.267 704,244.373 704,239.68 L704,144.32 C704,139.627 705.547,135.733 708.64,132.64 C711.733,129.547 715.627,128 720.32,128 L758.48,128 Z M758.48,136 L720.32,136 C717.76,136 715.733,136.747 714.24,138.24 C712.747,139.733 712,141.76 712,144.32 L712,239.68 C712,242.24 712.747,244.267 714.24,245.76 C715.733,247.253 717.76,248 720.32,248 L783.68,248 C786.24,248 788.267,247.253 789.76,245.76 C791.253,244.267 792,242.24 792,239.68 L792,169.52 C792,168.08 791.467,166.827 790.4,165.76 L762.24,137.6 C761.173,136.533 759.92,136 758.48,136 Z M737.28,173.68 L771.92,195.04 C773.893,196.267 774.88,197.92 774.88,200 C774.88,202.08 773.893,203.733 771.92,204.96 L737.28,226.32 C735.04,227.653 732.933,227.773 730.96,226.68 C728.987,225.587 728,223.733 728,221.12 L728,178.88 C728,176.267 728.987,174.413 730.96,173.32 C732.933,172.227 735.04,172.347 737.28,173.68 L737.28,173.68 Z M736,182.32 L736,217.68 L764.72,200 L736,182.32 L736,182.32 Z" id="Shape" fill="#355FC5" fill-rule="nonzero" opacity="0.518880208"></path>
        <path d="M332.48,92 C336.16,92 339.307,93.307 341.92,95.92 L370.08,124.08 C372.693,126.693 374,129.84 374,133.52 L374,203.68 C374,208.373 372.453,212.267 369.36,215.36 C366.267,218.453 362.373,220 357.68,220 L294.32,220 C289.627,220 285.733,218.453 282.64,215.36 C279.547,212.267 278,208.373 278,203.68 L278,108.32 C278,103.627 279.547,99.733 282.64,96.64 C285.733,93.547 289.627,92 294.32,92 L332.48,92 L332.48,92 Z M332.48,100 L294.32,100 C291.76,100 289.733,100.747 288.24,102.24 C286.747,103.733 286,105.76 286,108.32 L286,203.68 C286,206.24 286.747,208.267 288.24,209.76 C289.733,211.253 291.76,212 294.32,212 L357.68,212 C360.24,212 362.267,211.253 363.76,209.76 C365.253,208.267 366,206.24 366,203.68 L366,133.52 C366,132.08 365.467,130.827 364.4,129.76 L336.24,101.6 C335.173,100.533 333.92,100 332.48,100 L332.48,100 Z M323.04,141.52 C326.4,141.52 328.08,143.84 328.08,148.48 C328.08,150.56 327.76,153.093 327.12,156.08 C329.307,160.24 331.893,163.893 334.88,167.04 C335.692013,166.935502 336.505423,166.84216 337.32,166.76 C338.573,166.627 339.52,166.56 340.16,166.56 C342.56,166.56 344.387,167.107 345.64,168.2 C346.893,169.293 347.52,170.613 347.52,172.16 C347.52,173.653 346.88,175.027 345.6,176.28 C344.32,177.533 342.667,178.16 340.64,178.16 C338.133,178.16 335.413,176.88 332.48,174.32 C328.693,175.067 324.107,176.48 318.72,178.56 C317.92,180.16 317.213,181.48 316.6,182.52 C315.888135,183.710833 315.12749,184.871818 314.32,186 C313.413,187.28 312.44,188.253 311.4,188.92 C310.36,189.587 309.307,189.92 308.24,189.92 C306.64,189.92 305.253,189.307 304.08,188.08 C302.907,186.853 302.32,185.493 302.32,184 C302.32,180.427 306.107,176.88 313.68,173.36 C316.4,167.813 318.533,162.24 320.08,156.64 C318.32,153.333 317.44,150.48 317.44,148.08 C317.44,146 317.92,144.387 318.88,143.24 C319.84,142.093 321.227,141.52 323.04,141.52 L323.04,141.52 Z M324,162.56 C323.68,163.627 322.587,166.72 320.72,171.84 C325.36,170.347 328.133,169.493 329.04,169.28 C327.76,167.733 326.08,165.493 324,162.56 L324,162.56 Z" id="Shape-Copy-24" fill="#355FC5" fill-rule="nonzero" opacity="0.0711495536"></path>
        <path d="M332.48,-72 C336.16,-72 339.307,-70.693 341.92,-68.08 L370.08,-39.92 C372.693,-37.307 374,-34.16 374,-30.48 L374,39.68 C374,44.373 372.453,48.267 369.36,51.36 C366.267,54.453 362.373,56 357.68,56 L294.32,56 C289.627,56 285.733,54.453 282.64,51.36 C279.547,48.267 278,44.373 278,39.68 L278,-55.68 C278,-60.373 279.547,-64.267 282.64,-67.36 C285.733,-70.453 289.627,-72 294.32,-72 L332.48,-72 L332.48,-72 Z M332.48,-64 L294.32,-64 C291.76,-64 289.733,-63.253 288.24,-61.76 C286.747,-60.267 286,-58.24 286,-55.68 L286,39.68 C286,42.24 286.747,44.267 288.24,45.76 C289.733,47.253 291.76,48 294.32,48 L357.68,48 C360.24,48 362.267,47.253 363.76,45.76 C365.253,44.267 366,42.24 366,39.68 L366,-30.48 C366,-31.92 365.467,-33.173 364.4,-34.24 L336.24,-62.4 C335.173,-63.467 333.92,-64 332.48,-64 L332.48,-64 Z M338,-12 L350,2 L326,30 L302,2 L314,-12 L338,-12 Z" id="Shape-Copy-27" fill="#355FC5" fill-rule="nonzero" opacity="0.222679501"></path>
        <path d="M332.48,256 C336.16,256 339.307,257.307 341.92,259.92 L370.08,288.08 C372.693,290.693 374,293.84 374,297.52 L374,367.68 C374,372.373 372.453,376.267 369.36,379.36 C366.267,382.453 362.373,384 357.68,384 L294.32,384 C289.627,384 285.733,382.453 282.64,379.36 C279.547,376.267 278,372.373 278,367.68 L278,272.32 C278,267.627 279.547,263.733 282.64,260.64 C285.733,257.547 289.627,256 294.32,256 L332.48,256 Z M332.48,264 L294.32,264 C291.76,264 289.733,264.747 288.24,266.24 C286.747,267.733 286,269.76 286,272.32 L286,367.68 C286,370.24 286.747,372.267 288.24,373.76 C289.733,375.253 291.76,376 294.32,376 L357.68,376 C360.24,376 362.267,375.253 363.76,373.76 C365.253,372.267 366,370.24 366,367.68 L366,297.52 C366,296.08 365.467,294.827 364.4,293.76 L336.24,265.6 C335.173,264.533 333.92,264 332.48,264 Z M311.28,301.68 L345.92,323.04 C347.893,324.267 348.88,325.92 348.88,328 C348.88,330.08 347.893,331.733 345.92,332.96 L311.28,354.32 C309.04,355.653 306.933,355.773 304.96,354.68 C302.987,353.587 302,351.733 302,349.12 L302,306.88 C302,304.267 302.987,302.413 304.96,301.32 C306.933,300.227 309.04,300.347 311.28,301.68 L311.28,301.68 Z M310,310.32 L310,345.68 L338.72,328 L310,310.32 L310,310.32 Z" id="Shape-Copy-2" fill="#355FC5" fill-rule="nonzero" opacity="0.0590122768"></path>
        <path d="M332.48,584 C336.16,584 339.307,585.307 341.92,587.92 L370.08,616.08 C372.693,618.693 374,621.84 374,625.52 L374,695.68 C374,700.373 372.453,704.267 369.36,707.36 C366.267,710.453 362.373,712 357.68,712 L294.32,712 C289.627,712 285.733,710.453 282.64,707.36 C279.547,704.267 278,700.373 278,695.68 L278,600.32 C278,595.627 279.547,591.733 282.64,588.64 C285.733,585.547 289.627,584 294.32,584 L332.48,584 L332.48,584 Z M332.48,592 L294.32,592 C291.76,592 289.733,592.747 288.24,594.24 C286.747,595.733 286,597.76 286,600.32 L286,695.68 C286,698.24 286.747,700.267 288.24,701.76 C289.733,703.253 291.76,704 294.32,704 L357.68,704 C360.24,704 362.267,703.253 363.76,701.76 C365.253,700.267 366,698.24 366,695.68 L366,625.52 C366,624.08 365.467,622.827 364.4,621.76 L336.24,593.6 C335.173,592.533 333.92,592 332.48,592 L332.48,592 Z M335.52,680.08 C334.987,680.08 334.587,679.947 334.32,679.68 C334.107,679.52 333.84,679.227 333.52,678.8 L325.76,665.52 C325.689448,665.602381 325.635156,665.697393 325.6,665.8 C325.558589,665.888476 325.531582,665.983001 325.52,666.08 L325.28,666.56 L317.84,678.8 C317.733,679.013 317.493,679.307 317.12,679.68 C316.747,679.947 316.373,680.08 316,680.08 L309.04,680.08 L320.8,661.52 L309.52,644 L316.96,644 C317.44,644 317.787,644.053 318,644.16 C318.267,644.373 318.48,644.613 318.64,644.88 L326.4,657.6 L326.64,656.96 C326.693,656.907 326.76,656.8 326.84,656.64 C326.92,656.48 326.987,656.373 327.04,656.32 L334,644.96 C334.16,644.64 334.373,644.4 334.64,644.24 C334.853,644.08 335.147,644 335.52,644 L342.64,644 L331.2,661.2 L342.96,680.08 L335.52,680.08 L335.52,680.08 Z" id="Shape" fill="#355FC5" fill-rule="nonzero" opacity="0.157947359"></path>
        <path d="M758.48,456 C762.16,456 765.307,457.307 767.92,459.92 L796.08,488.08 C798.693,490.693 800,493.84 800,497.52 L800,567.68 C800,572.373 798.453,576.267 795.36,579.36 C792.267,582.453 788.373,584 783.68,584 L720.32,584 C715.627,584 711.733,582.453 708.64,579.36 C705.547,576.267 704,572.373 704,567.68 L704,472.32 C704,467.627 705.547,463.733 708.64,460.64 C711.733,457.547 715.627,456 720.32,456 L758.48,456 L758.48,456 Z M758.48,464 L720.32,464 C717.76,464 715.733,464.747 714.24,466.24 C712.747,467.733 712,469.76 712,472.32 L712,567.68 C712,570.24 712.747,572.267 714.24,573.76 C715.733,575.253 717.76,576 720.32,576 L783.68,576 C786.24,576 788.267,575.253 789.76,573.76 C791.253,572.267 792,570.24 792,567.68 L792,497.52 C792,496.08 791.467,494.827 790.4,493.76 L762.24,465.6 C761.173,464.533 759.92,464 758.48,464 L758.48,464 Z M761.52,552.08 C760.987,552.08 760.587,551.947 760.32,551.68 C760.107,551.52 759.84,551.227 759.52,550.8 L751.76,537.52 C751.689448,537.602381 751.635156,537.697393 751.6,537.8 C751.558589,537.888476 751.531582,537.983001 751.52,538.08 L751.28,538.56 L743.84,550.8 C743.733,551.013 743.493,551.307 743.12,551.68 C742.747,551.947 742.373,552.08 742,552.08 L735.04,552.08 L746.8,533.52 L735.52,516 L742.96,516 C743.44,516 743.787,516.053 744,516.16 C744.267,516.373 744.48,516.613 744.64,516.88 L752.4,529.6 L752.64,528.96 C752.693,528.907 752.76,528.8 752.84,528.64 C752.92,528.48 752.987,528.373 753.04,528.32 L760,516.96 C760.16,516.64 760.373,516.4 760.64,516.24 C760.853,516.08 761.147,516 761.52,516 L768.64,516 L757.2,533.2 L768.96,552.08 L761.52,552.08 L761.52,552.08 Z" id="Shape-Copy-7" fill="#355FC5" fill-rule="nonzero" opacity="0.435663132"></path>
        <path d="M190.48,220 C194.16,220 197.307,221.307 199.92,223.92 L228.08,252.08 C230.693,254.693 232,257.84 232,261.52 L232,331.68 C232,336.373 230.453,340.267 227.36,343.36 C224.267,346.453 220.373,348 215.68,348 L152.32,348 C147.627,348 143.733,346.453 140.64,343.36 C137.547,340.267 136,336.373 136,331.68 L136,236.32 C136,231.627 137.547,227.733 140.64,224.64 C143.733,221.547 147.627,220 152.32,220 L190.48,220 L190.48,220 Z M190.48,228 L152.32,228 C149.76,228 147.733,228.747 146.24,230.24 C144.747,231.733 144,233.76 144,236.32 L144,331.68 C144,334.24 144.747,336.267 146.24,337.76 C147.733,339.253 149.76,340 152.32,340 L215.68,340 C218.24,340 220.267,339.253 221.76,337.76 C223.253,336.267 224,334.24 224,331.68 L224,261.52 C224,260.08 223.467,258.827 222.4,257.76 L194.24,229.6 C193.173,228.533 191.92,228 190.48,228 L190.48,228 Z M193.52,316.08 C192.987,316.08 192.587,315.947 192.32,315.68 C192.107,315.52 191.84,315.227 191.52,314.8 L183.76,301.52 C183.689448,301.602381 183.635156,301.697393 183.6,301.8 C183.558589,301.888476 183.531582,301.983001 183.52,302.08 L183.28,302.56 L175.84,314.8 C175.733,315.013 175.493,315.307 175.12,315.68 C174.747,315.947 174.373,316.08 174,316.08 L167.04,316.08 L178.8,297.52 L167.52,280 L174.96,280 C175.44,280 175.787,280.053 176,280.16 C176.267,280.373 176.48,280.613 176.64,280.88 L184.4,293.6 L184.64,292.96 C184.693,292.907 184.76,292.8 184.84,292.64 C184.92,292.48 184.987,292.373 185.04,292.32 L192,280.96 C192.16,280.64 192.373,280.4 192.64,280.24 C192.853,280.08 193.147,280 193.52,280 L200.64,280 L189.2,297.2 L200.96,316.08 L193.52,316.08 L193.52,316.08 Z" id="Shape-Copy-25" fill="#355FC5" fill-rule="nonzero" opacity="0.031273"></path>
    </g>
</svg>