<svg width="390" height="563" viewBox="0 0 390 563" xmlns="http://www.w3.org/2000/svg"><path d="M171.779 4c2.93 2 3.613 2.1 5.761 1 1.367-.7 3.418-1.3 4.688-1.3 2.636 0 8.007 5 8.007 7.4 0 1.9.098 1.9 3.516.6 3.418-1.4 7.422.2 9.668 3.6 1.171 1.9 2.343 2.4 5.859 2.4 3.418 0 4.59.5 6.25 2.6 1.172 1.5 2.05 3.4 2.05 4.3 0 .9 1.27 2.2 2.93 2.8 1.563.6 3.711 2.5 4.59 4.2.976 1.7 2.539 3.1 3.515 3.1.977 0 3.125 1.3 4.688 2.9 2.246 2.3 2.832 3.8 2.832 7.1s.488 4.6 2.441 6.2c2.637 2.1 4.785 8.6 3.809 11.2-.391 1 .195 2.6 1.464 3.9 1.758 2 1.954 3.4 1.954 10.7-.098 4.7-.489 9.2-.88 10-.488.9-.292 5.4.391 10 1.074 8.2 1.27 8.5 3.809 8.8 5.175.6 5.859 3.3 5.175 20.9-.39 8.7-.585 25-.585 36.3.097 11.3-.293 22.8-.782 25.6-.78 4.9-.78 5.1 1.953 6.7 2.93 1.7 5.469 6.6 9.082 17.7 2.051 6 2.442 6.6 5.957 7.8 4.59 1.6 8.789 5.5 9.668 8.9.293 1.4 1.855 4.2 3.32 6.2 1.563 2 3.418 5.6 4.102 8.1 1.367 4.3 1.66 4.5 8.203 7 10.156 3.8 19.53 10.5 31.737 22.6 12.89 12.8 18.945 21.7 28.222 41.5 11.23 24.2 16.7 41.6 25.488 82.4 4.59 21.1 5.762 28.7 6.347 41.9.391 6.7 1.27 16.6 2.149 22.1 2.93 19.3-.293 38-8.984 50.9-5.664 8.5-10.45 11.7-18.555 12.4l-6.542.5.683 5.1c.293 2.8.684 5.9.781 7 .098 1-.488 2.3-1.464 2.9-2.735 1.8-4.493-.8-5.176-7.8-.39-3.6-1.172-6.8-1.856-7.3-.585-.5-3.515-1.4-6.445-2.1-9.082-2-19.433-7.8-25.976-14.5-5.859-6.1-15.722-20.2-19.824-28.4l-2.148-4.3-5.078 3c-2.832 1.6-5.664 4.1-6.347 5.5-.684 1.4-6.446 6.2-12.695 10.6-6.25 4.5-14.258 10.5-17.774 13.5-3.515 3-7.617 6-9.179 6.6-2.441 1.1-2.637 1.6-2.148 4.8.293 2 1.074 8.7 1.66 14.9 1.074 10.1 1.074 11.5-.39 12.9-2.93 3.1-4.298.1-5.567-12.5-.684-6.4-1.563-12.5-1.856-13.4-.488-1.4-4.296.5-23.534 11.7-26.367 15.5-35.84 20-52.734 25.1-10.742 3.2-13.769 3.7-24.901 4-2.354.061-4.826.057-7.303-.004.188-.076.129-.178-.217-.296-.976-.2-2.734-.2-3.906 0-.248.04-.418.078-.514.116-4.022-.211-7.862-.563-11.01-1.016-12.304-1.7-22.85-4.7-30.76-8.7-7.422-3.7-19.238-15.9-27.441-28.2-6.64-10-22.558-37.9-28.222-49.4-8.887-18.3-17.48-44.9-21.093-65.6-1.007-5.653-1.699-12.272-2.08-19.161.123-1.028.1-2.506-.069-3.539a2.745 2.745 0 00-.12-.544C-.145 371.979.587 357.459 2.544 348c5.469-26.1 13.77-42.1 31.25-60.6 7.226-7.6 25.975-19.8 46.873-30.6 4.297-2.2 11.524-6.3 16.113-9 7.227-4.4 8.3-5.5 8.887-8.4.879-4.8 6.152-12.7 8.496-12.7 1.074 0 1.855-.7 1.855-1.7s.293-3.4.586-5.3c.488-3 .195-3.6-1.758-4.5-1.562-.7-2.343-2-2.539-4.1-.195-1.9-1.465-4.3-3.222-6-1.563-1.5-2.832-3.8-2.832-5.1 0-2.7-2.93-9.5-4.59-10.6-.684-.4-1.172-2.5-1.074-4.5.195-6.4-.684-7.7-5.078-7.7-7.91 0-13.672-8.1-18.457-25.8-4.297-16.1-3.906-22.1 2.05-29.9l2.833-3.8-4.004-3.8c-3.613-3.6-3.906-4.3-3.906-9.4 0-4 .488-6.3 1.855-7.9 1.856-2.3 1.856-2.4 0-5.1-2.93-4.2-3.222-8-1.074-13.1 1.367-3.2 1.758-5.8 1.465-9-.781-7 .39-11.3 4.101-15.1 1.758-1.8 3.907-4.7 4.785-6.4 1.758-3.4 4.2-5.2 7.422-5.2 1.66 0 1.856-.4 1.367-2.4-1.172-4.9 5.957-13.6 11.23-13.6 1.856 0 3.125-.8 4.297-3 2.051-3.5 4.883-5.2 7.813-4.8 1.66.2 2.539-.6 4.003-3.5 2.051-4.3 5.86-6.7 10.645-6.7 2.148 0 4.004-.8 5.175-2.1 2.832-3.3 6.055-4.2 9.082-2.6 2.442 1.3 2.93 1.2 5.567-1 5.273-4.3 12.89-3.9 20.019 1zM41.117 287.5l-8.984 10.8c-10.84 13.1-14.55 19.5-19.042 33.4-5.86 18.1-6.934 25.2-6.934 46.5.098 15.6.488 21.3 2.344 31.5 4.297 23.8 14.16 51.3 26.269 73.5 17.578 32.3 25.488 44.5 35.546 54.7 9.668 9.8 17.578 13.4 37.402 16.8 8.007 1.4 14.257 1.8 24.413 1.6 12.5-.3 14.648-.7 25.39-4 14.844-4.7 26.953-10.3 42.48-19.5 6.738-4 19.726-11.6 28.808-16.8 9.18-5.3 18.066-10.9 19.921-12.7 3.108-2.99 3.219-3.189 2.785-9.386l-.05-.714c-.782-10-3.516-17.1-11.914-30.4-8.692-13.8-14.258-19.9-19.629-21.1-7.03-1.7-42.968 8-69.334 18.5-13.574 5.4-16.309 6.8-32.421 16.7-12.696 7.8-15.82 8.8-15.82 5 0-1.3 2.539-3.4 8.3-6.8 4.492-2.7 8.203-5.3 8.3-5.7 0-.5-3.417-.7-7.519-.5-6.542.3-7.617.1-7.91-1.4-.488-2.4 3.418-3.8 10.645-3.8 4.882 0 5.761-.3 5.761-1.8 0-2.8-6.25-24.6-10.742-37.2-2.246-6.3-8.3-24.1-13.378-39.5-20.605-61.9-32.421-88.5-41.894-94.6-1.758-1.1-5.37-2.2-8.008-2.6l-4.785-.5zm282.612 52.3l-5.078 4.7c-11.719 10.9-25.683 16.7-38.379 16-4.101-.3-8.398-.8-9.374-1.3-1.758-.8-1.856-.4-1.172 12.6.879 16.6 2.344 25.3 7.324 43.9 11.816 43.9 31.835 82.1 49.12 94 6.054 4.1 15.625 7.7 24.511 9 5.957.9 12.89.3 16.406-1.6 3.71-1.9 9.57-8.9 11.816-14.2 8.203-19.7 7.422-37.8-3.125-66.7-10.253-28.2-27.929-61.4-48.827-91.7l-3.222-4.7zM256.738 439c-4.785-5.2-7.422-5.5-19.433-1.7l-8.301 2.5 4.004 4.2c4.883 5.2 15.234 21.1 18.945 29.4 1.562 3.4 3.613 9.8 4.394 14.2l1.563 7.9 9.18-6.1 9.179-6.2-.391-5.6c-.781-9.9-10.156-28.8-19.14-38.6zm18.945-8.1c-.293-.9-2.246 0-6.25 2.9l-5.762 4.2 4.785 7.4c6.543 10.3 12.598 24.1 12.598 28.8 0 .8.195 1.5.39 1.5.489 0 9.375-5.1 9.375-5.4 0-.2-1.758-4.2-3.906-8.9-2.05-4.7-5.371-13.2-7.324-18.9-1.856-5.7-3.711-10.9-3.906-11.6zM105.179 249.7l-5.078 3.1c-2.832 1.6-9.473 5.3-14.844 8.1-8.984 4.7-30.956 17.4-34.862 20.3-1.563 1.1-1.368 1.3 1.953 2.4 7.128 2.2 13.867 10.6 21.093 26.2 6.445 13.8 17.09 42 23.535 61.9 2.539 8 8.984 27 14.257 42.2 5.371 15.3 10.84 32.9 12.305 39.3 1.464 6.3 3.027 11.5 3.32 11.5.39 0 5.175-2.2 10.742-5 18.945-9.2 67.088-24 78.318-24 5.176 0 5.274 0 3.614-9.1-.489-3-2.246-14.6-3.907-25.9-3.613-24.8-6.542-38.4-12.792-59.7-7.52-25.6-9.766-30.5-18.457-39.3-5.762-5.8-9.57-8.7-17.48-12.9l-10.058-5.4-5.176 1.2c-4.2 1-6.055 2.1-9.57 6-2.442 2.7-5.371 6.7-6.445 8.9-2.149 4.3-5.371 7.2-7.91 7.2-2.735 0-5.567-4.1-11.719-17.1-5.761-12.3-6.738-15.6-10.156-36.1l-.683-3.8zm131.442 24.6c-2.344-.5-4.101.1-8.984 3.4-13.672 9.2-21.191 20-24.218 34.7-1.27 6.3-1.27 7.6.097 11.4 5.957 17.2 14.355 52.3 16.504 68.4 1.27 9.8 5.468 38 5.957 40.3.293 1.6.976 2.2 2.148 1.8 19.433-6.3 22.949-6.7 28.515-3.5l3.711 2.2 4.492-2.7c2.344-1.4 5.273-3.9 6.348-5.4 1.855-2.8 1.855-2.8 0-9.7-3.907-14.4-5.86-26.5-7.13-44-1.171-14.9-2.05-20.3-4.882-31-5.957-21.6-6.445-23.8-6.445-27.2 0-1.9.781-4 1.953-5.1 1.953-1.8 1.953-1.9-.488-9.2-1.367-4-2.442-8.1-2.442-8.9 0-.9-1.27-2.3-2.832-3.3-2.44-1.4-8.105-8.1-9.081-10.7-.196-.5-1.563-1.1-3.223-1.5zm55.272-18.6c-1.562 0-1.367 3.4.977 11.4 3.027 10.5 7.422 20 9.96 21.1 2.149 1 5.176 6.6 15.82 29.5 6.446 13.8 8.594 17.8 13.77 25 8.789 12.4 19.14 29.3 26.366 43 9.375 17.9 18.262 37 20.02 43 .878 3 1.464 3.9 1.66 2.6 1.367-6.8-13.184-70.3-20.8-91.1-4.883-13.3-15.04-35-20.508-43.7-4.98-7.8-20.02-23.7-28.808-30.5-5.469-4.2-16.406-10.3-18.457-10.3zm9.766 38.8l-5.371 5.9c-3.32 3.6-7.91 7.3-12.402 9.8-6.682 3.662-7.56 3.98-15.304 3.999l-1.81.001c-9.44.002-9.269.173-6.616 9 .78 2.8 2.734 9.9 4.296 15.9 1.563 6 3.418 11.5 4.2 12.3.78.8 3.125 2.1 5.175 2.8 2.051.8 5.371 1.4 7.227 1.5 11.425.1 31.933-10.5 37.108-19.2 1.66-2.8 1.563-3-1.66-9.6-1.758-3.7-5.86-12.5-9.082-19.5l-5.761-12.9zm-34.277 33.9c0-2.1 3.516-4.9 5.566-4.5 2.246.4 4.102 7.2 2.54 9.6-1.758 3-4.883 2.6-6.543-.7-.88-1.6-1.563-3.6-1.563-4.4zm-18.261-105.7c-11.914-1.1-16.7.1-22.265 5.8-7.227 7.3-11.914 19.2-7.715 19.2 1.465 0 7.031-5.5 12.988-12.7 3.32-3.9 8.398-4.5 22.753-2.7 13.672 1.7 16.406 2.5 16.406 5s-2.246 2.6-14.648.9c-12.304-1.8-18.554-1.6-20.995.5-.782.6-2.247 3.9-3.32 7.3-4.102 12.7-3.516 23.1.683 13.4 2.344-5.3 8.203-12.2 12.207-14.4 2.246-1.2 4.59-1.4 10.351-.9 14.91 1.272 17.472 1.778 18.124 3.3l.04.1c1.171 3.2-1.66 3.7-14.063 2.8-11.718-.9-11.913-.9-14.452 1.5-6.543 6.2-10.547 16.9-6.348 16.9.977 0 2.832-1.2 4.2-2.6 3.32-3.6 10.741-8.5 11.913-7.7.488.3 4.492 1.1 8.887 1.7 6.835 1 7.91 1.5 7.91 3.2 0 1.8-.684 1.9-9.473 1.7l-9.472-.1-4.102 3.7-4.199 3.8 2.246 3.6c2.832 4.7 6.152 7.1 12.305 9 3.222.9 4.98 2 5.175 3.2.488 2.3-1.66 3.6-4.59 2.8-1.757-.4-2.246-.2-1.855.8.293.8 1.465 4.6 2.637 8.4 1.27 3.9 2.441 7.6 2.636 8.4.684 2.1 10.645.6 16.895-2.7 5.468-2.8 14.062-10 15.82-13.3.683-1.4.292-3.1-1.954-7.3l-2.734-5.4-1.855 2.4c-1.368 1.7-2.246 2.2-3.223 1.5-1.172-.8-1.172-2.1-.098-8.4.88-5.5.88-7.9.098-9.5-.586-1.1-1.074-4.7-1.074-7.8 0-3.3-.586-6.4-1.27-7.3-.78-.9-1.855-3.5-2.441-5.7-.684-2.3-2.148-5.4-3.32-6.9-1.27-1.6-3.125-4.7-4.2-6.9-1.757-3.8-2.44-4.2-8.3-5.9-3.516-1-10.84-2.2-16.308-2.7zm-124.412 2.2c-2.148-.3-2.636.2-3.222 2.9-.977 5.1-.684 8.8.976 12.2 2.442 5 14.55 21.8 18.164 25.4 4.004 4 16.797 12.2 29.882 19.2 10.644 5.7 20.508 14.1 24.609 20.9 1.367 2.2 2.734 3.7 3.027 3.4.293-.4 1.27-3.2 2.149-6.2s2.636-7.2 3.906-9.3c3.32-5.6 12.988-15.3 19.921-20l6.055-4.1-2.93-1.8c-2.93-1.8-3.027-2-2.636-8.8.195-3.9.195-7 .097-7-.097 0-1.27.5-2.636 1.1-1.856.9-3.516.9-6.836 0-4.395-1.1-4.59-1.1-7.324 2.1-2.637 3-3.125 3.2-5.078 1.9-1.953-1.2-2.344-1.1-3.809.9-2.148 3-6.054 2.4-6.836-1-.488-2.2-.683-2-1.27 1.6-.39 2.3-1.366 4.4-2.147 4.8-1.954.7-4.395-.3-4.395-1.9 0-1.5-4.297-2.9-4.687-1.5-.489 1.5-3.125 4-4.102 4-1.758 0-3.906-3.3-3.906-6.1 0-2.5-.293-2.8-2.637-2.5-1.562.2-3.613.7-4.59 1.1-2.245 1-4.491-1.7-4.491-5.4v-2.4l-2.344 2.3c-2.734 2.5-5.371 2.1-6.152-1-.391-1.5-1.075-1.8-2.832-1.4-2.832.7-5.274-1.1-5.274-3.8 0-1.1-.586-2.6-1.367-3.3-1.172-1.2-1.465-1.2-1.953.1-.39 1-1.562 1.4-3.223 1.2-2.44-.3-2.734-.8-3.027-4.4-.293-3.7-.586-4.2-3.125-4.7-2.441-.5-2.832-1.1-3.125-4.4-.293-3.3-.683-3.8-2.832-4.1zm-11.035 9.5l-1.367 3.4c-1.66 4.2-1.172 16.7 1.27 28.4 1.465 7.4 9.375 27.4 12.792 32.4.782 1.1 1.66 2.1 1.856 2.1.195 0 1.465-2.1 3.027-4.7 3.809-6.6 10.059-13.3 14.355-15.3l3.614-1.7-3.809-2.6c-2.148-1.5-5.469-4.1-7.52-5.9-5.077-4.6-17.284-21.7-21.093-29.6l-3.125-6.5zm72.948-111.7c-1.465 0-3.125.4-3.71.8-.587.4-.977 6.4-1.075 14.2 0 14.7-.879 17.8-5.37 21.3-3.321 2.5-15.43 5.4-25.782 6.3-11.425.9-16.894-.6-21.874-6.1-3.418-3.8-12.793-21.6-12.793-24.4 0-.6-.781-1.4-1.66-1.9-1.953-1.1-16.015-4.4-16.504-4-.097.2.391 3 1.172 6.3.684 3.3 1.66 9.7 1.953 14.2.489 5.5 1.075 8.4 1.953 8.7 1.563.6 1.856 4.2.391 5.1-1.66 1-1.074 3.7.879 4.2 2.441.6 3.32 2.9 2.05 5.3-1.562 2.9-1.171 4.7 1.075 5.3 1.855.5 1.953 1 1.465 5.9-.489 4-.39 4.9.39 3.6 1.465-2.4 4.59-2.3 6.055.2.683 1.1 2.246 2 3.418 2 3.515 0 4.394 3 3.222 10.7-.586 3.8-1.27 7.6-1.562 8.6-.293.9-.098 1.7.488 1.7s1.074-1.3 1.074-2.8c0-3.7 2.051-6.5 4.492-6 1.368.2 1.954 1.4 2.344 4.3.293 2.2 1.074 4 1.758 4.1.586.1 1.562.2 2.148.3.489 0 1.465 2.1 2.051 4.6l1.172 4.6 1.758-3.1c2.05-3.4 3.027-3.7 5.175-1.4 1.856 1.8 1.856 1.6.684 4.8-.977 2.4-.879 2.4 2.246 1.9 3.613-.6 4.394.2 5.469 5.1l.586 3.1 1.66-3.2c1.074-2 2.441-3.3 3.613-3.3 2.148 0 3.906 2.8 3.125 4.9-.293.8 0 1.1.683.7.586-.4 2.051-.4 3.125-.1 1.856.6 1.953 1.2 1.368 5.3l-.586 4.7 2.05-3.3c2.442-4.1 4.492-4.9 6.738-2.8.977.9 2.832 1.6 4.297 1.6 1.367 0 2.93.7 3.418 1.6.781 1.4.977 1.4 2.05 0 1.661-2 3.419-2 4.981-.1 1.074 1.4 1.465 1.3 2.637-.5.879-1.3 2.246-2 3.515-1.8 1.954.3 2.149.9 1.954 5.3-.293 5.6 1.074 3.9 2.148-2.7.879-6 6.347-6.6 6.347-.7 0 4.2 2.344 3.6 4.2-1.1 1.562-4.1 4.59-5.4 6.25-2.7.488.7.976-.3 1.269-2.8.39-3.5.879-4.1 3.418-4.5 1.66-.3 4.492-1.7 6.347-3.2 1.856-1.4 4.59-3 6.153-3.3 2.832-.8 5.566-3.9 5.566-6.6 0-1.3-1.758-1.8-9.277-2.6-7.617-.8-9.766-1.5-11.719-3.3-4.687-4.5-2.05-10.8 5.469-13.1 1.855-.5 7.91-.9 13.574-.8l10.253.2.586-2.9c.977-4.4.977-36.7 0-38.2-.683-1.1-1.855-1-6.542.5-4.297 1.3-9.082 1.8-19.336 1.8h-13.476l-4.59-5.1c-4.2-4.6-8.3-12-12.207-21.6-1.172-3.1-1.953-3.8-4.199-3.8zm49.706 75.2c-9.863-.3-12.793 0-14.355 1.2-3.125 2.4-.879 3.5 9.277 4.5 5.078.6 9.668 1.6 10.254 2.3.683.7 1.855 3.4 2.832 5.9l1.562 4.6 6.64.9c3.614.5 6.641.6 6.836.2.196-.4-.976-3.9-2.539-7.9-4.101-10.6-5.37-11.3-20.507-11.7zm-54.393 2.8c.879 0 2.93 1 4.492 2.3 3.515 2.6 9.082 2.9 15.332.8 3.613-1.3 4.394-1.3 5.078-.1 1.367 2.2-.586 4.6-4.688 5.8-8.105 2.5-17.09.9-21.19-3.9-1.954-2.1-1.368-4.9.976-4.9zm15.234-19.5c1.465-1.8 1.855-1.8 5.761-.5 2.246.8 4.785 2 5.469 2.8.781.7 1.758 1.1 2.344.7 1.27-.8 4.687 2.9 5.468 6 1.075 4.3-2.832 7.2-5.468 4-1.075-1.3-1.367-1.2-2.832.7-1.465 1.7-2.051 1.9-3.809.9-1.172-.6-2.148-1.7-2.148-2.3 0-.7-.977-.2-2.05 1.1-1.466 1.6-2.735 2.1-4.395 1.7-1.27-.4-3.125-.1-4.2.6-1.464.9-2.246.9-3.32 0-1.074-1-1.66-.9-2.636.3-1.368 1.7-4.2 1.9-6.836.5-1.465-.8-2.05-.6-2.93 1-1.465 2.9-8.105 2.1-10.156-1.3-1.465-2.3 1.27-7.3 3.906-7 1.27.1 2.344-.9 3.32-3 1.758-3.9 5.079-4.7 7.13-1.7l1.366 2.1.586-2.2c.489-1.9 1.075-2.1 3.907-1.6 1.855.3 3.808.1 4.394-.5.488-.5 1.953-.8 3.223-.6 1.464.2 2.93-.5 3.906-1.7zm-7.422-40.4c1.563-1.5 1.758-1.4 3.71 1.4 1.173 1.6 4.005 5 6.25 7.5 2.344 2.6 5.079 6.8 6.153 9.4 2.441 5.6 1.66 9.6-2.93 14.1-2.343 2.3-4.003 3-8.496 3.3-5.956.4-7.128-.1-7.128-2.9 0-1.3 1.27-1.9 5.468-2.5 4.297-.7 5.957-1.5 7.52-3.6 2.636-3.6 1.757-6.2-4.2-13.2-2.734-3.1-5.566-7.1-6.445-8.8-1.464-2.8-1.367-3.2.098-4.7zM85.941 123.7c-2.442 0-5.469 5.2-5.86 10.4-.78 9.6 7.227 33.5 12.305 36.5 2.148 1.3 3.808 1.4 4.59.2.878-1.5-2.344-31.3-4.004-37.1-1.367-4.9-4.98-10-7.031-10zm90.134-1.5l-8.3.3c-9.082.4-37.304 4.5-43.163 6.2-2.149.6-3.711 1.7-3.711 2.6 0 2.5 8.3 19.7 11.23 23.2 1.563 1.9 3.71 3.8 4.785 4.2 5.762 2.4 29.492-.3 35.546-4 2.637-1.7 3.028-2.5 3.613-8.2.293-3.5.489-10.3.293-15.3l-.293-9zm-89.353 13c2.246 0 2.539.5 3.027 5.1.39 2.8 1.172 6.8 1.856 8.8.586 2 .878 4.3.586 5.1-2.051 5.5-7.422-3.8-7.715-13.3-.195-5.5-.098-5.7 2.246-5.7zm152.926-21.5c-3.808 0-26.073 3.3-34.57 5.1-11.522 2.5-11.132 1.5-5.468 13.4 3.809 8 8.398 14.2 11.523 15.5 4.492 1.9 20.996.5 30.175-2.6 2.54-.9 4.59-1.7 4.59-1.9 0-.1-.879-4.5-1.855-9.6-.977-5.2-2.149-11.8-2.54-14.6-.39-3.1-1.171-5.3-1.855-5.3zm-91.111 16c2.93 0 4.59 1.8 4.59 5 0 1.4-.489 3.1-1.172 3.8-1.66 1.7-4.297 1.5-6.055-.4-2.832-2.9-1.074-8.4 2.637-8.4zm66.112-2c0-4.8 4.101-6.6 7.129-3.2 2.05 2.3 2.05 3.6.097 5.6-1.562 1.6-5.37 2.2-6.543.9-.39-.3-.683-1.8-.683-3.3zm33.69-13.8c-1.269-1.4-1.66 1.3-.878 7.5l.879 6.8.293-6.9c.195-3.7 0-7.1-.293-7.4zm-52.733-80l-1.66 2.9c-2.441 4.1-6.152 6.3-9.472 5.6-2.442-.5-3.516 0-6.738 3.3-5.078 5.3-9.766 5.6-17.871 1.4-4.492-2.3-4.59-2.3-6.25-.4-2.539 2.8-7.715 3.5-12.304 1.7-3.418-1.4-4.297-1.4-7.227-.1-1.855.8-5.37 1.4-7.812 1.4-3.613 0-4.883.5-6.64 2.5-1.563 1.9-3.516 2.7-7.227 3.2l-5.176.6v4.5c0 2.6-.976 6.8-2.539 10.2-2.441 5.6-2.441 5.9-.976 10.3 1.367 4 1.367 5.2.097 9.4-1.27 4.1-1.27 5 0 7 .782 1.2 1.465 3.6 1.465 5.2 0 3-3.515 13.8-5.078 15.6-.586.6 1.465 1.6 5.762 2.6 7.324 1.8 6.836 1.8 22.265-1.1 16.699-3.1 34.96-5 48.339-5 9.96 0 14.55-.5 24.902-2.9 13.476-3.1 31.347-6.1 36.522-6.1 2.54 0 3.027-.3 2.735-1.7-.293-1-.782-4-1.172-6.8-1.075-8.6-6.25-28.6-8.79-34.3-3.515-7.8-10.741-17.9-15.038-20.8-2.05-1.3-7.422-3.7-11.914-5.3l-8.203-2.9zm-67.283 78.5c-6.543-4.9 10.058-12.8 23.73-11.4 6.933.8 10.644 2.3 11.425 5 .977 3.2-1.074 4-11.523 4.4-5.566.2-12.012.8-14.453 1.4-2.441.5-5.078 1.2-5.957 1.4-.781.3-2.246-.1-3.222-.8zm75.682-14.9c6.64-5 25.683-4.4 27.733 1 1.075 2.8-1.464 4.2-7.714 4.2-3.32.1-8.3.9-11.328 2-6.934 2.5-9.082 2.5-11.328-.1-2.05-2.3-1.367-4.1 2.637-7.1zm-123.24 3.2c0-.9-.39-.8-.879.5-.488 1.1-.879 2.7-.879 3.5 0 .9.39.8.88-.5.487-1.1.878-2.7.878-3.5zm8.3-7.4c-2.05-2.2-3.32-2-3.32.4 0 1.5.684 2 2.442 2 2.832 0 2.93-.3.879-2.4zm9.961-9.3c-.488-.6-2.539 4-2.539 5.8 0 .5.39.9.88.9 1.073 0 2.538-5.9 1.66-6.7zM82.718 66.7c-.488 0-.879.9-.879 2 0 1.9 1.074 2.6 2.246 1.4.781-.8-.293-3.4-1.367-3.4zm8.887-18c-1.27 0-1.27 2.7 0 3.5.586.4.878 1.2.78 1.8-.097.7.587 2.7 1.563 4.6 1.27 2.4 2.051 3 2.832 2.2.684-.7.586-1.6-.683-3-.88-1-2.051-3.5-2.637-5.5-.488-2-1.367-3.6-1.855-3.6zM170.314 26c-.977-1-5.762 10.4-5.176 12.2.39.9 1.465 1.5 2.344 1.3 1.367-.3 1.66-1.2 1.465-4.5-.196-2.3.195-5.1.78-6.3.587-1.2.88-2.4.587-2.7zm-44.14 13.1c1.856-.7 2.149-4.8.39-4.2-.683.3-1.366 1.4-1.562 2.6-.293 1.6.098 2 1.172 1.6zm-20.8-6.4c-.977 0-2.344.7-3.027 1.5-1.075 1.3-.782 1.5 1.855 1.5 2.05 0 3.027-.5 3.027-1.5 0-.8-.781-1.5-1.855-1.5zm44.53-6.1c.488-4 .39-4.3-.976-2.9-.88.8-2.442 3.6-3.516 6.3-2.148 5.1-1.855 5.6 1.66 2.9 1.563-1.2 2.442-3.2 2.832-6.3zm37.206 1.1c-1.171 0-.976 1.8.391 3.9.684 1.1 1.465 1.8 1.855 1.5.782-.5-1.27-5.4-2.246-5.4zm-7.812.2c.39-2.5-.39-4-1.367-2.9-.293.3-.195 1.6.195 2.9l.781 2.3zm30.859-4.6c-1.172-.5-1.465-.2-.977 1 .293.8.586 2 .586 2.5 0 .6.488.7.977.4 1.465-1 1.172-3.2-.586-3.9zm-50.194-1.6c.878-1.6.683-1.7-1.465-.6-1.367.6-2.442 1.6-2.442 2.3 0 1.7 2.735.5 3.907-1.7zm-31.836-6c-.195 0-1.074 1.1-1.953 2.5-1.562 2.4-1.562 2.7.195 4 .977.8 1.954 1.5 2.051 1.5.196 0 .196-1.8.098-4s-.293-4-.39-4z" fill="#212733" fill-rule="nonzero"/></svg>
