<svg width="96" height="56" xmlns="http://www.w3.org/2000/svg"><g fill="none" fill-rule="evenodd"><path d="M29.938 21.047H23v-5.485h19.922v5.485h-6.953v19.062h-6.032V21.047zM52.59 31.984h5.872l.109.877c.178 1.442 1.712 2.436 4.117 2.436 2.165 0 3.578-1.002 3.578-2.25 0-1.03-.847-1.694-3.35-2.276L60 30.101c-4.513-1.017-6.796-3.417-6.796-7.288 0-4.7 3.834-7.813 9.39-7.813 5.226 0 9.128 3.088 9.343 7.545l.051 1.049H66.21l-.122-.86c-.205-1.445-1.5-2.375-3.51-2.375-2.103 0-3.312.887-3.312 2.172 0 .928.77 1.525 3.16 2.072l2.59.593c4.985 1.123 7.28 3.381 7.28 7.35 0 5-3.883 8.126-9.859 8.126-5.666 0-9.563-2.96-9.795-7.638l-.052-1.05z" stroke="#FFF" stroke-width="2" fill="#000"/><path stroke="#000" stroke-width="4" d="M2 2h92v52H2z"/></g></svg>